<svg xmlns="http://www.w3.org/2000/svg" version="1$title-text.1" width="512" height="512" viewBox="0 0 60 60" style="enable-background:new 0 0 512 512" xml:space="preserve"><path fill="#9e9e9e" d="M42 7V3a2 2 0 0 0-2-2H20a2 2 0 0 0-2 2v4z" data-original="#9e9e9e"/><path fill="#f2f2f2" d="M44 10V7a2 2 0 0 0-2-2H18a2 2 0 0 0-2 2v3z" data-original="#f2f2f2"/><path fill="#f2f2f2" d="M44 10V7a2 2 0 0 0-2-2H18a2 2 0 0 0-2 2v3z" data-original="#f2f2f2"/><path fill="#b9bfcc" d="M14 19v-8a2.006 2.006 0 0 1 2-2h28a2.006 2.006 0 0 1 2 2v8z" data-original="#b9bfcc"/><path fill="#9e9e9e" d="M14 19v-8a2.006 2.006 0 0 1 2-2h28a2.006 2.006 0 0 1 2 2v8z" data-original="#9e9e9e"/><path fill="#242b0a" d="m59 41-6.7-10.537a1 1 0 0 0-.849-.463H8.549a1 1 0 0 0-.844.463L1 41l1 5h56z" data-original="#242b0a"/><path fill="#242b0a" d="M52 30.17V46H8V30.17a.967.967 0 0 1 .55-.17h42.9a.967.967 0 0 1 .55.17z" data-original="#242b0a"/><path fill="#f2f2f2" d="M12 56V21.828a2 2 0 0 1 .586-1.414l6.828-6.828A2 2 0 0 1 20.828 13H46a2 2 0 0 1 2 2v41z" data-original="#f2f2f2"/><path fill="#559127" d="M59 41v16a2 2 0 0 1-2 2H3a2 2 0 0 1-2-2V41h16a2 2 0 0 1 2 2 2 2 0 0 0 2 2h18a2 2 0 0 0 2-2 2 2 0 0 1 2-2z" data-original="#559127"/><rect width="22" height="4" x="19" y="50" fill="#242b0a" rx="2" data-original="#242b0a"/><path fill="#f0f2f5" d="M20 13.18V19a2.006 2.006 0 0 1-2 2h-5.82a2.017 2.017 0 0 1 .41-.59l6.82-6.82a2.017 2.017 0 0 1 .59-.41z" data-original="#f0f2f5"/><path d="M40 27H20a1 1 0 0 1 0-2h20a1 1 0 0 1 0 2zm0 4h-1a1 1 0 0 1 0-2h1a1 1 0 0 1 0 2zm-5 0H20a1 1 0 0 1 0-2h15a1 1 0 0 1 0 2zm5 4H25a1 1 0 0 1 0-2h15a1 1 0 0 1 0 2zm-19 0h-1a1 1 0 0 1 0-2h1a1 1 0 0 1 0 2zm10 4H20a1 1 0 0 1 0-2h11a1 1 0 0 1 0 2z" data-original="#f2f2f2" fill="#f2f2f2"/></svg>