<svg width="16" height="16" version="1.1" style="clip-rule:evenodd;fill-rule:evenodd;image-rendering:optimizeQuality;shape-rendering:geometricPrecision;text-rendering:geometricPrecision" viewBox="0 0 6272.106 7329.838" id="svg28" xmlns="http://www.w3.org/2000/svg"><defs id="defs13"><radialGradient id="id0" gradientUnits="userSpaceOnUse" gradientTransform="matrix(1 0 0 .4306 0 4220)" cx="12485.15" cy="7410.56" r="4627"><stop offset="0" style="stop-opacity:1;stop-color:#d9c846" id="stop4"/><stop offset=".4" style="stop-opacity:1;stop-color:#9fae49" id="stop6"/><stop offset="1" style="stop-opacity:1;stop-color:#66944b" id="stop8"/></radialGradient><radialGradient id="id1" gradientUnits="userSpaceOnUse" gradientTransform="matrix(.85454 0 0 1 770 0)" cx="5294.87" cy="4953.32" r="722.86" href="#id0"/><radialGradient id="id2" gradientUnits="userSpaceOnUse" gradientTransform="matrix(.8633 0 0 1 765 0)" cx="5599.81" cy="7569.18" r="3303.98" href="#id0"/><radialGradient id="radialGradient32" gradientUnits="userSpaceOnUse" gradientTransform="matrix(1 0 0 .4306 0 4220)" cx="12485.15" cy="7410.56" r="4627" href="#id0"/><style type="text/css" id="style2">.fil1{fill:url(#id0)}</style></defs><g id="Слой_x0020_1" transform="translate(-2492.402 -3836.554)"><g id="_1856076533312"><path d="M6387.73 8235.88c71.03 166.51 143.06 334.6 229.75 493.66 93.23 171.04 204.62 332.04 316.94 490.93 150.24 212.51 307.3 417.94 478.41 614.13 197.05 225.94 409.53 436.9 626 644.06 248.34 237.67 713.41 653.47 685.29 685.75-28.12 32.28-568.31-337.64-846.69-537.25-236.36-169.46-464.81-347.01-687.48-534.11-211.24-177.49-416.42-361.8-622.25-545.51-163.19-145.66-328.13-291.93-481.26-448.25-138.28-141.13-266.94-291.41-394.24-442.41l-26.35-31.25 657.72-611.57 19.02 67.72c14.48 51.53 29.8 102.82 45.14 154.1zm-991.16-4096.65c208.51 18.88 401.58 98.86 512.64 284.77 159.6 267.14 86.52 643.7-38.49 911.61-226.94 486.32-840.74 622.65-1132.96 113.81-18.29-31.86-34.94-64.66-49.93-98.21-134.09-300.08-148.61-706.98 66.15-974.74 159.13-198.41 397.16-259.45 642.59-237.24zm1710.63 175.12c-199.87 371.11-391.49 732.71-527.96 1133.42-55.98 164.42-95.38 331.46-136.1 500.12-107.36 444.61-209.43 870.27-210.82 1331.36-.54 177.54 13.39 355.54 45.61 530.23l4.27 23.16-719.68 669.19-29.03-34.67c-68.01-81.25-186.81-237.32-286.57-269.22-160.41-51.32-394.22 101.55-522.36 189.64-134.76 92.66-253.6 193.45-368.78 309.77-105.51 106.55-205.28 221.33-302.02 335.87-115.47 136.72-227.89 276.19-339.06 416.41-185.87 234.41-367.59 471.97-552.7 706.91-75 95.2-150.38 190.12-226.52 284.41-67.25 83.28-135.06 166.55-204.86 247.69-17.57 20.43-204.49 241.04-232.05 222.04-27.56-19 45.29-168.93 60.44-199.68 58.31-118.41 122.03-235.3 185.46-351.04 81.59-148.92 164.72-297.03 248.18-444.9 126.42-224 254.27-447.21 380-671.57 133.78-238.73 266.59-476.64 373.15-729.06 97.49-230.95 181.91-479.03 244.29-721.71 56.49-219.75 87.69-427.56 101.94-653.8 9.03-143.55 12.55-288.15 13.2-431.97.71-155.91-1.75-313.28-11.43-468.92l-1.31-21.06 438.54-383.72 28.18 33.33c92.4 109.25 187.8 196.71 315.06 263.6 165.53 87 351.1 137.81 534.19 75.16 252.45-86.42 477.9-342.72 640.5-548.72 268.9-340.67 497.2-716.47 745.76-1072.27 77.01-110.24 156.55-213.41 241.43-317.47l338.02-426.26c3.53-4.45 9.89-5.38 14.55-2.13 4.67 3.26 5.97 9.58 2.99 14.43zM4062.36 5963.71c-67.29-377.7-250.14-800.53-436.64-1135.19-180.14-323.25-419.15-612.83-607.4-924.06-2.71-4.47-1.85-10.11 2.06-13.57 3.91-3.48 9.62-3.65 13.74-.42 170.28 133.44 290.85 259.52 438.59 426.78 128.97 146 247.12 298.1 359.77 457 117.4 165.6 227.52 337.03 334.95 509.24 83.63 134.06 165.18 271.42 254.58 401.64l21.6 31.46-367.92 321.92z" id="path20" style="fill:#000"/><path d="M6347.3 8250.5c189.99 445.39 261.95 584.38 552.08 994.74 360.45 509.86 638.97 813.84 1109.78 1264.43 206.39 197.52 425.63 388.49 520.55 475.72 94.92 87.23 112.65 107.94 130.4 128.64-525.78-348.83-957.45-646.21-1442.55-1053.83-220.3-185.1-439.72-382.63-621.28-544.67-418.22-373.28-529.87-481.38-871.27-886.31l576.27-535.83c14.91 53.1 30.47 105.1 46.02 157.11zm-780.9 189.11c-89.99-107.51-197.98-247.88-306.4-282.55-172.53-55.19-400.94 85.97-559.76 195.16-104.09 71.56-224.74 163.23-374.95 314.93-341.24 344.61-869.72 1047.45-1197 1462.84-159.45 202.39-532.68 680.3-583.49 705.71-8.28 4.13-10.06 4.13 19.21-55.3 159.93-324.68 622.52-1116.99 846.08-1515.93 174.16-310.78 278.26-503.58 375.25-733.34 96.99-229.77 186.87-496.49 246.31-727.72 59.44-231.25 88.42-427.01 103.21-661.79 17.04-270.81 18-645.44 1.77-906.25l389.81-341.08c98.33 116.25 196.68 204.93 327.86 273.88 175.7 92.35 372.64 144.65 568.05 77.77 251.69-86.15 476.08-329.35 660.3-562.73 251.9-319.12 523.49-754 747.25-1074.28 74.96-107.3 131.31-180.63 182.52-244.6 19.49-24.35 38.24-47.34 56.99-70.33-11.31 21-22.61 41.96-33.87 62.9-183.89 341.83-361.45 679.23-496.92 1077.04-55.87 164.11-89 304.28-137.2 503.88-109.75 454.48-210.58 867.22-212.02 1341.3-.6 198.2 16.69 377.46 46.32 538.14zM4104.61 5956.18c-66.91-375.55-257.3-818.2-441.4-1148.55-164.96-296.01-330.72-521.48-525.46-783.31 256.15 260.58 430.93 452.02 659.72 774.75 117.39 165.59 234.48 348.33 333.54 507.13 97.76 156.69 177.92 290.05 255.61 403.22z" id="path22" style="fill:url(#id2)"/><path d="M5392.7 4181.98c-762.54-69.01-916.82 725.23-617.72 1246.07 276.71 481.82 846.37 340.45 1056.85-110.59 212.32-454.99 210.33-1076.71-439.13-1135.48z" id="path24" style="fill:url(#id1)"/></g></g></svg>