<svg xmlns="http://www.w3.org/2000/svg" version="1.1" xmlns:xlink="http://www.w3.org/1999/xlink" width="20" height="20" x="0" y="0" viewBox="0 0 32 32" style="enable-background:new 0 0 512 512" xml:space="preserve"><g><path d="M30 14v13c0 .55-.45 1-1 1h-3.18c.12-.31.18-.65.18-1V11h1c1.65 0 3 1.35 3 3zM6.18 28H3c-.55 0-1-.45-1-1V14c0-1.65 1.35-3 3-3h1v16c0 .35.06.69.18 1zM21 6H11C9.346 6 8 7.346 8 9v18a1 1 0 0 0 1 1h4a1 1 0 0 0 1-1v-4a1 1 0 0 1 1-1h2a1 1 0 0 1 1 1v4a1 1 0 0 0 1 1h4a1 1 0 0 0 1-1V9c0-1.654-1.346-3-3-3zm-6 11.5a.5.5 0 0 1-.5.5h-1a.5.5 0 0 1-.5-.5v-1a.5.5 0 0 1 .5-.5h1a.5.5 0 0 1 .5.5zm0-5a.5.5 0 0 1-.5.5h-1a.5.5 0 0 1-.5-.5v-1a.5.5 0 0 1 .5-.5h1a.5.5 0 0 1 .5.5zm4 5a.5.5 0 0 1-.5.5h-1a.5.5 0 0 1-.5-.5v-1a.5.5 0 0 1 .5-.5h1a.5.5 0 0 1 .5.5zm0-5a.5.5 0 0 1-.5.5h-1a.5.5 0 0 1-.5-.5v-1a.5.5 0 0 1 .5-.5h1a.5.5 0 0 1 .5.5z" fill="#ffffff" opacity="1" data-original="#000000"></path></g></svg>