<svg xmlns="http://www.w3.org/2000/svg" version="1.1" xmlns:xlink="http://www.w3.org/1999/xlink" width="20" height="20" x="0" y="0" viewBox="0 0 512 512" style="enable-background:new 0 0 512 512" xml:space="preserve" class=""><g><path d="m446.398 356.846-86.595-54.324c-.212.215-.419.434-.633.648a128.739 128.739 0 0 1-6.171 5.768V386h16c19.299 0 35 15.701 35 35v26c0 13.785-11.215 25-25 25h-15c-8.284 0-15-6.716-15-15s6.716-15 15-15h10v-21c0-2.757-2.243-5-5-5h-64c-2.757 0-5 2.243-5 5v21h10c8.284 0 15 6.716 15 15s-6.716 15-15 15h-15c-13.785 0-25-11.215-25-25v-26c0-19.299 15.701-35 35-35h18v-57.532C306.679 336.016 288.775 340 270.257 340h-28.515c-18.707 0-36.788-4.063-53.243-11.761v61.513c17.199 6.33 29.5 22.879 29.5 42.248 0 24.813-20.187 45-45 45s-45-20.187-45-45c0-19.74 12.782-36.54 30.5-42.589v-80.915a129.062 129.062 0 0 1-5.671-5.325c-.214-.214-.42-.433-.633-.648L65.6 356.847C24.782 382.454 0 427.254 0 475.442V512h512v-36.558c0-48.188-24.782-92.988-65.602-118.596z" fill="#ffffff" opacity="1" data-original="#000000" class=""></path><path d="M173 447c8.271 0 15-6.729 15-15s-6.729-15-15-15-15 6.729-15 15 6.729 15 15 15zM146 152.859h220V60c0-33.137-26.863-60-60-60H206c-33.137 0-60 26.863-60 60zM231 69h10V59c0-8.284 6.716-15 15-15s15 6.716 15 15v10h10c8.284 0 15 6.716 15 15s-6.716 15-15 15h-10v10c0 8.284-6.716 15-15 15s-15-6.716-15-15V99h-10c-8.284 0-15-6.716-15-15s6.716-15 15-15zM241.743 310h28.515C323.135 310 366 267.135 366 214.257v-31.398H146v31.398C146 267.135 188.865 310 241.743 310z" fill="#ffffff" opacity="1" data-original="#000000" class=""></path></g></svg>