<svg xmlns="http://www.w3.org/2000/svg" version="1.1" xmlns:xlink="http://www.w3.org/1999/xlink" width="512" height="512" x="0" y="0" viewBox="0 0 512 512" style="enable-background:new 0 0 512 512" xml:space="preserve" class=""><g><path d="m256 350.72 7.68-30.72h-15.36zM149.333 469.333h96v-73.387L218.88 290.133a54.669 54.669 0 0 1-5.547-2.88v67.627c10.204 5.891 13.7 18.938 7.809 29.142s-18.938 13.7-29.142 7.809-13.7-18.938-7.809-29.142A21.331 21.331 0 0 1 192 354.88v-84.373l-17.813 10.667a69.348 69.348 0 0 0-19.2 17.493 74.658 74.658 0 0 0-14.933 32 81.56 81.56 0 0 0-1.387 14.4v113.6c0 5.891 4.775 10.666 10.666 10.666zM373.333 458.667v-113.6c0-37.714-23.51-55.478-35.52-63.36L320 271.04v72.747a31.998 31.998 0 0 1 21.333 29.547v32c0 5.891-4.776 10.667-10.667 10.667s-10.667-4.776-10.667-10.667v-32c0-5.891-4.776-10.667-10.667-10.667s-10.667 4.776-10.667 10.667v32c0 5.891-4.776 10.667-10.667 10.667s-10.667-4.776-10.667-10.667v-32a32 32 0 0 1 21.333-30.08v-56a54.459 54.459 0 0 1-5.547 2.88l-26.453 105.813v73.387h96c5.894-.001 10.669-4.776 10.669-10.667zM339.733 229.547c0 2.56-7.253 21.333-8 23.147l16.32 10.027zM384 233.92a74.672 74.672 0 0 1-21.333 0l10.667 42.133zM455.147 217.493l-17.813-11.307a82.02 82.02 0 0 1-29.333 21.333l-20.267 80.96a93.657 93.657 0 0 1 7.467 36.693v60.16h85.333c5.891 0 10.667-4.776 10.667-10.667v-113.6a75.31 75.31 0 0 0-36.054-63.572zM409.28 202.667a77.334 77.334 0 0 0 28.053-53.333c-35.413 0-51.2-13.227-58.133-24.853a136.962 136.962 0 0 1-35.2 18.667 95.248 95.248 0 0 1 8 38.187s0 25.92-.747 28.053a74.672 74.672 0 0 0 58.027-6.721z" fill="#ffffff" opacity="1" data-original="#000000" class=""></path><path d="M448 128v-10.667c-.07-41.237-33.556-74.61-74.793-74.54a74.68 74.68 0 0 0-31.02 6.806 93.334 93.334 0 0 0-40.64 47.253 190.76 190.76 0 0 1 32 27.413 153.093 153.093 0 0 0 46.72-27.413c5.518-2.063 11.664.739 13.726 6.257.426 1.139.653 2.341.674 3.557 0 2.88 3.307 21.333 42.667 21.333H448zM319.04 213.333c-45.12 0-71.36-15.36-83.84-25.707a58.881 58.881 0 0 1-48.64 25.707c3.277 35.802 33.49 63.092 69.44 62.72 43.733 0 63.04-44.16 63.04-62.72z" fill="#ffffff" opacity="1" data-original="#000000" class=""></path><path d="M222.4 170.667a8.002 8.002 0 0 1 7.04-5.547 6.827 6.827 0 0 1 6.507 2.88c.96 1.173 21.973 27.52 77.973 27.52h7.68v-30.933c-.059-33.773-27.454-61.12-61.227-61.12h-15.04c-33.731.059-61.061 27.389-61.12 61.12V195.2H192a32.854 32.854 0 0 0 30.4-24.533zM172.267 229.547c0 2.56 7.253 21.333 8 23.147l-16.32 10.027zM128 233.92a74.672 74.672 0 0 0 21.333 0l-10.667 42.133zM56.853 217.493 75.2 206.187a82.02 82.02 0 0 0 29.333 21.333l20.267 80.96a93.657 93.657 0 0 0-7.467 36.693v60.16H32c-5.891 0-10.667-4.776-10.667-10.667v-113.6a75.308 75.308 0 0 1 35.52-63.573zM102.72 202.667a77.334 77.334 0 0 1-28.053-53.333c35.413 0 51.2-13.227 58.133-24.853a136.946 136.946 0 0 0 35.2 18.667 95.248 95.248 0 0 0-8 38.187s0 25.92.747 28.053a74.672 74.672 0 0 1-58.027-6.721z" fill="#ffffff" opacity="1" data-original="#000000" class=""></path><path d="M64 128v-10.667c.07-41.237 33.556-74.61 74.793-74.54a74.68 74.68 0 0 1 31.02 6.806 93.334 93.334 0 0 1 40.64 47.253 190.76 190.76 0 0 0-32 27.413 153.093 153.093 0 0 1-46.72-27.413c-5.518-2.063-11.664.739-13.726 6.257a10.675 10.675 0 0 0-.674 3.557c0 2.88-3.307 21.333-42.667 21.333H64z" fill="#ffffff" opacity="1" data-original="#000000" class=""></path></g></svg>