<svg xmlns="http://www.w3.org/2000/svg" version="1.1" xmlns:xlink="http://www.w3.org/1999/xlink" width="512" height="512" x="0" y="0" viewBox="0 0 512 512" style="enable-background:new 0 0 512 512" xml:space="preserve" class=""><g><path d="M256 131.89c65.43 0 120.813 29.823 155.752 54.851 41.4 29.65 62.7 58.32 68.217 69.259-5.53 10.939-26.818 39.626-68.217 69.267C376.816 350.3 321.433 380.126 256 380.126S135.181 350.3 100.242 325.267C58.844 295.626 37.551 266.939 32.019 256c5.532-10.939 26.825-39.609 68.215-69.259C135.181 161.713 190.568 131.89 256 131.89m0-31.036C114.62 100.854 0 224.981 0 256c0 31.036 114.62 155.146 256 155.146S512 287.036 512 256c0-31.019-114.616-155.146-256-155.146zm0 62.055A93.091 93.091 0 1 0 349.094 256 93.1 93.1 0 0 0 256 162.909zM230.941 256a39.385 39.385 0 1 1 39.38-39.385A39.384 39.384 0 0 1 230.941 256z" fill="#ffffff" opacity="1" data-original="#ffffff" class=""></path></g></svg>