<svg xmlns="http://www.w3.org/2000/svg" version="1.1" xmlns:xlink="http://www.w3.org/1999/xlink" width="512" height="512" x="0" y="0" viewBox="0 0 512 512" style="enable-background:new 0 0 512 512" xml:space="preserve"><g><path d="M140 122V77.472c0-17.722 14.5-32.222 32.222-32.222h167.556c17.723 0 32.222 14.5 32.222 32.222V122M477 266v170.75c0 16.497-13.503 30-30 30H65c-16.497 0-30-13.5-30-30V267" style="fill-rule:evenodd;clip-rule:evenodd;stroke-width:30;stroke-linecap:round;stroke-linejoin:round;stroke-miterlimit:22.9256;" fill-rule="evenodd" clip-rule="evenodd" fill="none" stroke="#ffffff" stroke-width="30" stroke-linecap="round" stroke-linejoin="round" stroke-miterlimit="22.9256" data-original="#ffffff"></path><path d="M216 316.5c-105.789-6.049-201-36.3-201-90.753V154.75c0-16.523 13.476-30 30-30h422c16.523 0 30 13.478 30 30v70.997c0 54.794-96.414 85.082-203 90.864" style="fill-rule:evenodd;clip-rule:evenodd;stroke-width:30;stroke-linecap:round;stroke-linejoin:round;stroke-miterlimit:22.9256;" fill-rule="evenodd" clip-rule="evenodd" fill="none" stroke="#ffffff" stroke-width="30" stroke-linecap="round" stroke-linejoin="round" stroke-miterlimit="22.9256" data-original="#ffffff"></path><path d="M219 286.75h74v34.5c0 18.975-15.525 34.5-34.5 34.5h-5c-18.975 0-34.5-15.525-34.5-34.5v-34.5z" style="fill-rule:evenodd;clip-rule:evenodd;stroke-width:30;stroke-linecap:round;stroke-linejoin:round;stroke-miterlimit:22.9256;" fill-rule="evenodd" clip-rule="evenodd" fill="none" stroke="#ffffff" stroke-width="30" stroke-linecap="round" stroke-linejoin="round" stroke-miterlimit="22.9256" data-original="#ffffff"></path></g></svg>