<svg xmlns="http://www.w3.org/2000/svg" version="1.1" xmlns:xlink="http://www.w3.org/1999/xlink" width="512" height="512" x="0" y="0" viewBox="0 0 60 60" style="enable-background:new 0 0 512 512" xml:space="preserve" class=""><g><path d="M30 16.81c3.03 0 5.5-2.47 5.5-5.5s-2.47-5.5-5.5-5.5-5.5 2.47-5.5 5.5 2.47 5.5 5.5 5.5zm0-9c1.93 0 3.5 1.57 3.5 3.5s-1.57 3.5-3.5 3.5-3.5-1.57-3.5-3.5 1.57-3.5 3.5-3.5zM20.95 21.37l-3.53 9.19c-.12.32-.18.67-.18 1.01 0 .96.49 1.85 1.26 2.39v18.86c0 .55.45 1 1 1s1-.45 1-1V34.45c1.01-.12 1.92-.75 2.34-1.73l1.42-3.15v14.21c0 1.88 1.53 3.41 3.41 3.41.5 0 .98-.11 1.41-.31v3.9c0 1.88 1.53 3.41 3.41 3.41s3.41-1.53 3.41-3.41V29.79l1.26 2.94c.61 1.44 2.3 2.19 3.83 1.56 1.42-.59 2.13-2.28 1.58-3.76l-3.35-9.14a5.479 5.479 0 0 0-5.12-3.57h-8.04c-2.26-.01-4.32 1.43-5.11 3.55zm5.12-1.56h8.04c1.44 0 2.74.91 3.24 2.26l3.35 9.14c.18.49-.03 1.04-.47 1.22-.55.23-1.03-.04-1.22-.49l-3.18-7.42a1.01 1.01 0 0 0-1.12-.59c-.46.1-.8.5-.8.98v25.86c0 .78-.63 1.41-1.41 1.41s-1.41-.63-1.41-1.41v-11.2c0-.55-.45-1-1-1s-1 .45-1 1v4.2c0 .78-.63 1.41-1.41 1.41s-1.41-.63-1.41-1.41V24.92c0-.47-.33-.88-.79-.98s-.93.14-1.12.57l-3.34 7.41c-.19.46-.71.68-1.16.51a.923.923 0 0 1-.56-1.17l3.53-9.18c.5-1.36 1.8-2.27 3.24-2.27z" fill="#ffffff" opacity="1" data-original="#ffffff"></path></g></svg>