<svg xmlns="http://www.w3.org/2000/svg" width="512" height="512" viewBox="0 0 682.667 682.667" style="enable-background:new 0 0 512 512" xml:space="preserve"><defs><clipPath id="a" clipPathUnits="userSpaceOnUse"><path d="M0 512h512V0H0Z" fill="#242b0a" data-original="#242b0a"/></clipPath></defs><g clip-path="url(#a)" transform="matrix(1.33333 0 0 -1.33333 0 682.667)" fill="none" stroke="#242b0a" stroke-width="15" stroke-linecap="round" stroke-linejoin="round" stroke-miterlimit="10"><path d="m0 0 .024-50.494c.813-37.824 24.848-67.913 59.842-80.084 8.886-3.09 18.836-5.014 29.897-5.137 46.234.516 88.654 34.711 89.738 85.221L179.525 0" style="stroke-width:15;stroke-linecap:round;stroke-linejoin:round;stroke-miterlimit:10;stroke-dasharray:none;stroke-opacity:1" transform="translate(166.237 384.57)" data-original="#242b0a"/><path d="M0 0c-.01 26.996-21.898 48.878-48.895 48.877l-90.869-.003a20.641 20.641 0 0 1-18.265-11.026v-.221c0-7.478-5.994-12.349-13.381-11.197-18.968 2.958-35.315-11.63-35.315-30.035v-67.722c.969.181 1.969.274 2.992.274h17.559c6.015 2.942 10.158 9.12 10.158 16.267v16.201c0 9.619 7.798 17.418 17.418 17.418 2.21-.135 9.813.731 19.749-2.641 1.694-.327 27.802-11.731 61.989-3.244v-.001c5.587 1.386 9.394 2.818 10.725 3.245 9.156 3.107 17.197 2.583 18.03 2.641 9.62 0 17.418-7.799 17.418-17.418v-16.2c0-7.148 4.143-13.326 10.158-16.268H-2.97c1.023 0 2.022-.093 2.991-.274L.007-35.449" style="stroke-width:15;stroke-linecap:round;stroke-linejoin:round;stroke-miterlimit:10;stroke-dasharray:none;stroke-opacity:1" transform="translate(359.352 455.623)" data-original="#242b0a"/><path d="M0 0h10.644C19.616 0 26.89 7.273 26.89 16.246v18.003c0 8.972-7.274 16.245-16.246 16.245" style="stroke-width:15;stroke-linecap:round;stroke-linejoin:round;stroke-miterlimit:10;stroke-dasharray:none;stroke-opacity:1" transform="translate(345.738 334.076)" data-original="#242b0a"/><path d="M0 0c-8.973 0-16.246-7.273-16.246-16.245v-18.003c0-8.973 7.273-16.246 16.246-16.246h10.644" style="stroke-width:15;stroke-linecap:round;stroke-linejoin:round;stroke-miterlimit:10;stroke-dasharray:none;stroke-opacity:1" transform="translate(155.618 384.57)" data-original="#242b0a"/><path d="M0 0v-35.9c0-11.8 9.565-21.366 21.365-21.366h363.117c11.8 0 21.366 9.566 21.366 21.366v90.616c0 29.189-17.18 55.644-43.846 67.517-17.94 7.988-47.989 13.923-71.457 17.644l.001.002c-1.845.291-3.888.605-5.582.861l-.001-.001a783.218 783.218 0 0 1-15.717 2.201 15.165 15.165 0 0 0-8.463 4.008l-.004-.002a15.16 15.16 0 0 0-4.777 11.058v43.006" style="stroke-width:15;stroke-linecap:round;stroke-linejoin:round;stroke-miterlimit:10;stroke-dasharray:none;stroke-opacity:1" transform="translate(53.076 64.766)" data-original="#242b0a"/><path d="M0 0v-42.976c0-4.328-1.82-8.272-4.777-11.057l-.004.002a15.165 15.165 0 0 0-8.463-4.008 790.559 790.559 0 0 1-15.717-2.201l-.001.001C-53.1-63.856-86.412-70.025-106-78.746c-26.666-11.873-43.846-38.328-43.846-67.518v-19.53" style="stroke-width:15;stroke-linecap:round;stroke-linejoin:round;stroke-miterlimit:10;stroke-dasharray:none;stroke-opacity:1" transform="translate(202.922 265.745)" data-original="#242b0a"/><path d="m0 0 19.728-50.688c3.747-9.628 14.974-13.933 24.198-9.278l43.696 22.053L29.764 7.069" style="stroke-width:15;stroke-linecap:round;stroke-linejoin:round;stroke-miterlimit:10;stroke-dasharray:none;stroke-opacity:1" transform="translate(168.378 204.644)" data-original="#242b0a"/><path d="m0 0-57.858-44.982 43.696-22.053c9.224-4.655 20.451-.351 24.198 9.277L29.764-7.069" style="stroke-width:15;stroke-linecap:round;stroke-linejoin:round;stroke-miterlimit:10;stroke-dasharray:none;stroke-opacity:1" transform="translate(313.858 211.714)" data-original="#242b0a"/><path d="m0 0 14.148-30.175h27.805L56.102 0" style="stroke-width:15;stroke-linecap:round;stroke-linejoin:round;stroke-miterlimit:10;stroke-dasharray:none;stroke-opacity:1" transform="translate(227.95 152.574)" data-original="#242b0a"/><path d="m0 0-18.657-114.899" style="stroke-width:15;stroke-linecap:round;stroke-linejoin:round;stroke-miterlimit:10;stroke-dasharray:none;stroke-opacity:1" transform="translate(242.098 122.4)" data-original="#242b0a"/><path d="m0 0-18.657 114.899" style="stroke-width:15;stroke-linecap:round;stroke-linejoin:round;stroke-miterlimit:10;stroke-dasharray:none;stroke-opacity:1" transform="translate(288.56 7.5)" data-original="#242b0a"/><path d="M0 0h-52.849a7.908 7.908 0 0 0-7.908 7.909v20.809a7.908 7.908 0 0 0 7.908 7.909H0a7.909 7.909 0 0 0 7.909-7.909V7.909A7.909 7.909 0 0 0 0 0Z" style="stroke-width:15;stroke-linecap:round;stroke-linejoin:round;stroke-miterlimit:10;stroke-dasharray:none;stroke-opacity:1" transform="translate(387.097 76.719)" data-original="#242b0a"/><path d="M0 0v-36.768" style="stroke-width:15;stroke-linecap:round;stroke-linejoin:round;stroke-miterlimit:10;stroke-dasharray:none;stroke-opacity:1" transform="translate(116.994 46.049)" data-original="#242b0a"/><path d="M0 0v-36.768" style="stroke-width:15;stroke-linecap:round;stroke-linejoin:round;stroke-miterlimit:10;stroke-dasharray:none;stroke-opacity:1" transform="translate(395.006 46.049)" data-original="#242b0a"/></g></svg>