<svg xmlns="http://www.w3.org/2000/svg" width="20" height="20" viewBox="0 0 48 48" style="enable-background:new 0 0 512 512" xml:space="preserve"><g fill="#fff"><path d="M41.5 2A3.504 3.504 0 0 0 38 5.5V21a1 1 0 0 0 1 1h4a2.002 2.002 0 0 0 2-2V5.5A3.504 3.504 0 0 0 41.5 2zM36 36a5 5 0 1 0-8 3.974V45a1 1 0 0 0 1.447.894L31 45.118l1.553.776A1 1 0 0 0 34 45v-5.026A4.979 4.979 0 0 0 36 36zM23.555 17a2.003 2.003 0 0 0-.14-.172l-1.536-1.535A2.982 2.982 0 0 1 21 13.171V12h-4v1.171a2.982 2.982 0 0 1-.879 2.122l-1.535 1.535a2.003 2.003 0 0 0-.141.172zM14 19h10v3H14zm8-9h1.001L23 8h-8v2h1z" data-original="#000000"/><path d="M7 2a3.933 3.933 0 0 0-4 3.86v36.19A1.983 1.983 0 0 0 5 44h21v-3.13A6.911 6.911 0 0 1 24 36a6.994 6.994 0 0 1 12-4.89V5.5A5.451 5.451 0 0 1 37.26 2zm13 38H8a1 1 0 0 1 0-2h12a1 1 0 0 1 0 2zM7 35a1 1 0 0 1 1-1h11a1 1 0 0 1 0 2H8a1 1 0 0 1-1-1zm14-3H8a1 1 0 0 1 0-2h13a1 1 0 0 1 0 2zm5-13.757V26a2.002 2.002 0 0 1-2 2H14a2.002 2.002 0 0 1-2-2v-8a.96.96 0 0 1 .046-.228 3.959 3.959 0 0 1 1.126-2.358l1.535-1.535A.996.996 0 0 0 15 13.17V12a2.002 2.002 0 0 1-2-2V8a2.002 2.002 0 0 1 2-2h8a2.002 2.002 0 0 1 2 2v2a2.002 2.002 0 0 1-2 2v1.171a.996.996 0 0 0 .293.708l1.535 1.535a3.958 3.958 0 0 1 1.126 2.358A.954.954 0 0 1 26 18z" data-original="#000000"/><path d="M14 24h10v2H14z" data-original="#000000"/></g></svg>