<svg xmlns="http://www.w3.org/2000/svg" width="20" height="20" viewBox="0 0 512 512" style="enable-background:new 0 0 512 512" xml:space="preserve"><g fill="#fff"><circle cx="296" cy="160" r="40" data-original="#000000"/><path d="M443.397 451.026a115.701 115.701 0 0 1-55.001-25.222l-32.794-27.328a15 15 0 0 0-15.174-2.403c-28.65 11.459-60.207 11.459-88.857 0a14.997 14.997 0 0 0-16.178 3.32C219.663 415.124 211 436.038 211 458.284V497c0 8.284 6.716 15 15 15h240c8.284 0 15-6.716 15-15v-1.586c0-22.088-15.814-40.756-37.603-44.388zM296 90c16.38 0 31.452 5.671 43.391 15.132C346.602 97.149 351 86.579 351 75c0-41.355-33.645-75-75-75H46c-8.284 0-15 6.716-15 15v90c0 8.284 6.716 15 15 15h192.604c12.665-18.117 33.663-30 57.396-30zm54.918 126.57a14.902 14.902 0 0 0-2.61-10.122C335.476 220.883 316.787 230 296 230s-39.476-9.117-52.308-23.552a14.902 14.902 0 0 0-2.61 10.122L251.969 320h88.061zm-88.204 151.65c10.697 4.278 21.896 6.448 33.286 6.448s22.589-2.17 33.288-6.449a44.761 44.761 0 0 1 5.866-1.892L336.873 350h-81.745l1.719 16.327a44.877 44.877 0 0 1 5.867 1.893z" data-original="#000000"/></g></svg>