<svg xmlns="http://www.w3.org/2000/svg" version="1.1" xmlns:xlink="http://www.w3.org/1999/xlink" width="512" height="512" x="0" y="0" viewBox="0 0 512 512" style="enable-background:new 0 0 512 512" xml:space="preserve" class=""><g><path d="M302.665 53.438c-1.777-14.629-4.369-29.923-7.981-45.938M305.695 121.295a457.686 457.686 0 0 0-.185-33.003M155.511 412.098a279.451 279.451 0 0 1 83.685 4.315l14.866 3.044a52.117 52.117 0 0 0 40.394-8.396h0c22.725-15.947 28.959-46.909 14.177-70.408h0c-11.604-18.448-18.122-39.664-18.708-61.45-.92-34.217 8.691-73.488 13.431-122.006M114.699 360.61l-25.216 12.128a24.795 24.795 0 0 0-14.048 22.345h0c0 15.19 13.534 26.809 28.549 24.51l10.668-1.634M201.583 310.087a55.816 55.816 0 0 1-22.342 19.479l-25.403 12.219M210.895 157.198v122.019c0 1.111-.041 2.216-.106 3.316M210.895 86.633v36.872M210.895 7.5v45.938M151.439 450.243H116.43V337.424a7.967 7.967 0 0 1 5.451-7.56l19.073-6.35c5.159-1.718 10.485 2.123 10.485 7.56v119.169z" style="stroke-width:15;stroke-linecap:round;stroke-linejoin:round;stroke-miterlimit:10;" fill="none" stroke="#000000" stroke-width="15" stroke-linecap="round" stroke-linejoin="round" stroke-miterlimit="10" data-original="#000000" class=""></path><path d="M363.421 157.198v91.33c0 19.209 8.604 37.108 23.604 49.109 5.783 4.626 9.727 11.237 11.104 18.613 2.817 15.091 4.864 30.15 6.084 44.762 2.399 28.76-6.885 56.288-26.158 77.631-19.684 21.799-47.957 33.857-77.328 33.857h-60.761a13.01 13.01 0 0 1-7.271-2.221l-26.435-17.814a13.008 13.008 0 0 0-7.271-2.221H95.001c-8.23 0-14.901 6.671-14.901 14.901v24.454c0 8.23 6.672 14.901 14.901 14.901h206.908c35.471 0 69.656-14.158 94.751-39.031M363.421 86.633v36.872M395.421 53.438V15.31a7.81 7.81 0 0 0-7.81-7.81H371.23a7.81 7.81 0 0 0-7.81 7.81v39.498M395.421 123.505V88.292M414.919 442.939c16.056-24.889 23.675-54.693 21.181-84.587-1.309-15.685-3.501-31.826-6.516-47.975-2.786-14.917-10.804-28.318-22.579-37.735a30.874 30.874 0 0 1-11.585-24.114v-92.536M407.843 154.991H198.008a6.936 6.936 0 0 1-6.936-6.936v-15.193a6.936 6.936 0 0 1 6.936-6.936h209.835a6.936 6.936 0 0 1 6.936 6.936v15.193a6.936 6.936 0 0 1-6.936 6.936zM116.43 473.064v5.285M147.476 473.064v5.285M178.522 473.064v5.285M272.833 85.633h135.01a6.936 6.936 0 0 0 6.936-6.936V63.504a6.936 6.936 0 0 0-6.936-6.936H198.008a6.936 6.936 0 0 0-6.936 6.936v15.193a6.936 6.936 0 0 0 6.936 6.936h45.824" style="stroke-width:15;stroke-linecap:round;stroke-linejoin:round;stroke-miterlimit:10;" fill="none" stroke="#000000" stroke-width="15" stroke-linecap="round" stroke-linejoin="round" stroke-miterlimit="10" data-original="#000000" class=""></path></g></svg>