<svg xmlns="http://www.w3.org/2000/svg" version="1.1" xmlns:xlink="http://www.w3.org/1999/xlink" width="512" height="512" x="0" y="0" viewBox="0 0 511.996 511.996" style="enable-background:new 0 0 512 512" xml:space="preserve" class=""><g><path d="M196.961 373.594h40.057c4.111 0 8.065.893 11.663 2.496v-22.156c0-6.858-5.56-12.418-12.418-12.418h-40.068c-6.858 0-12.418 5.56-12.418 12.418v22.88a28.543 28.543 0 0 1 13.184-3.22zM232.61 219.182h0a55.96 55.96 0 0 1-35.002.612v121.722h37.24V218.348c-.737.291-1.482.572-2.238.834z" style="stroke-width:15;stroke-linecap:round;stroke-linejoin:round;stroke-miterlimit:10;" fill="none" stroke="#000000" stroke-width="15" stroke-linecap="round" stroke-linejoin="round" stroke-miterlimit="10" data-original="#000000" class=""></path><circle cx="214.777" cy="166.115" r="21.537" style="stroke-width:15;stroke-linecap:round;stroke-linejoin:round;stroke-miterlimit:10;" fill="none" stroke="#000000" stroke-width="15" stroke-linecap="round" stroke-linejoin="round" stroke-miterlimit="10" data-original="#000000" class=""></circle><path d="M273.498 504.496h106.84c21.482 0 35.295-22.8 25.348-41.84l-7.861-15.048c-5.719-10.946-17.796-17.101-29.983-15.103-73.759 12.094-96.647-17.881-103.703-39.366-3.839-11.693-14.815-19.545-27.122-19.545H196.96a28.597 28.597 0 0 0-27.309 20.111l-22.906 73.705c-5.72 18.406 8.035 37.085 27.31 37.085h64.443M252.631 59.208l-7.183-41.266A12.603 12.603 0 0 0 233.031 7.5H111.507c-5.832 0-9.923 5.751-8.01 11.261l57.562 165.757c10.186 29.331 42.22 44.851 71.55 34.665h0c26.026-9.038 41.667-35.605 36.943-62.748l-10.914-62.706" style="stroke-width:15;stroke-linecap:round;stroke-linejoin:round;stroke-miterlimit:10;" fill="none" stroke="#000000" stroke-width="15" stroke-linecap="round" stroke-linejoin="round" stroke-miterlimit="10" data-original="#000000" class=""></path></g></svg>