<svg xmlns="http://www.w3.org/2000/svg" version="1.1" xmlns:xlink="http://www.w3.org/1999/xlink" width="512" height="512" x="0" y="0" viewBox="0 0 512 512" style="enable-background:new 0 0 512 512" xml:space="preserve"><g><path d="M464.7 150.54c-3.31-30.27-11.54-56.71-25.15-80.83-9.64-17.09-24.59-32.17-42.08-42.45-17.21-10.12-34.99-14.25-48.76-11.33l-.12.03c-57.92 13.53-68.96 75.46-72.23 120.87-2.71 37.71-1.95 42.14 16.25 94.86 10.37 30.03 9.45 50.14 4.67 92.12l-8.34 66.76c-.04.27-.05.55-.05.83.07 4.79-.59 11-1.29 17.57-2.32 21.77-5.2 48.87 11.13 67.96 8.01 9.36 20 16.01 33.76 18.74 4.49.89 8.85 1.33 13.04 1.33 14.54 0 27.14-5.33 36.93-15.72 14.19-15.07 21.06-38.58 26.37-61.73 4.01-17.5 7.23-33.51 10.33-49 7.25-36.12 13.5-67.31 27.26-105.64 15.21-42.43 21.7-83.04 18.28-114.37zm-166.94 59.08c1.5-.08 3.01-.14 4.51-.14 44.64 0 80.96 36.32 80.96 80.96 0 44.26-35.7 80.31-79.81 80.94l5.77-46.15c4.9-43.01 5.89-65.23-5.24-97.45-2.36-6.85-4.41-12.84-6.19-18.16zm137.36 51.22c-14.05 39.16-20.7 72.27-27.73 107.33-3.09 15.41-6.29 31.34-10.26 48.67-4.93 21.51-11.18 43.2-23.41 56.19-9.77 10.38-22.85 14.02-38.9 10.84-10.97-2.17-20.8-7.56-26.97-14.77-12.97-15.16-10.39-39.4-8.32-58.88.72-6.76 1.4-13.16 1.36-18.58l1.03-8.24c.12 0 .23.01.35.01 51.26 0 92.96-41.7 92.96-92.96s-41.7-92.96-92.96-92.96c-2.78 0-5.56.14-8.33.38-8.07-25.85-7.53-33.36-5.6-60.18 2.99-41.61 12.77-98.27 62.92-110.03 21.45-4.49 59.27 15.03 77.84 47.95 12.79 22.68 20.54 47.62 23.67 76.24 3.23 29.55-3.04 68.26-17.65 108.99zM367.59 78.87c-23.73 0-43.03 19.3-43.03 43.03s19.3 43.03 43.03 43.03 43.03-19.3 43.03-43.03-19.3-43.03-43.03-43.03zm0 74.05c-17.11 0-31.03-13.92-31.03-31.03s13.92-31.03 31.03-31.03 31.03 13.92 31.03 31.03c0 17.12-13.92 31.03-31.03 31.03zm-131.95-16.09c-3.26-45.41-14.3-107.34-72.23-120.87l-.12-.03c-13.78-2.92-31.55 1.21-48.76 11.33C97.04 37.54 82.1 52.62 72.45 69.71c-13.61 24.12-21.83 50.56-25.15 80.83-3.43 31.33 3.06 71.94 18.29 114.35 13.75 38.33 20.01 69.52 27.26 105.64 3.11 15.49 6.32 31.5 10.33 49 5.31 23.16 12.18 46.66 26.37 61.73 9.79 10.4 22.39 15.72 36.93 15.72 4.19 0 8.54-.44 13.04-1.33 13.76-2.73 25.75-9.38 33.75-18.74 16.34-19.09 13.45-46.18 11.13-67.96-.7-6.57-1.36-12.78-1.29-17.57 0-.28-.01-.55-.05-.83l-8.34-66.69c-4.79-42.04-5.71-62.15 4.66-92.18 18.21-52.71 18.97-57.14 16.26-94.85zm-31.48 332.28c-6.17 7.21-16 12.6-26.97 14.77-16.04 3.18-29.13-.47-38.9-10.84-12.22-12.99-18.48-34.68-23.41-56.19-3.98-17.34-7.17-33.27-10.26-48.67-7.04-35.06-13.68-68.18-27.74-107.34-14.62-40.74-20.89-79.44-17.65-109 3.13-28.62 10.88-53.56 23.67-76.24 16.8-29.77 49.33-48.59 71.27-48.59 2.32 0 4.52.21 6.57.64 50.15 11.76 59.93 68.42 62.92 110.03 1.93 26.82 2.47 34.32-5.6 60.18-2.77-.25-5.55-.38-8.33-.38-51.26 0-92.96 41.7-92.96 92.96s41.7 92.96 92.96 92.96c.12 0 .23-.01.35-.01l1.03 8.24c-.04 5.42.64 11.82 1.36 18.58 2.08 19.5 4.66 43.74-8.31 58.9zm3.89-241.34c-11.12 32.22-10.14 54.44-5.23 97.52l5.76 46.09c-44.11-.62-79.81-36.68-79.81-80.94 0-44.64 36.32-80.96 80.96-80.96 1.5 0 3.01.05 4.51.14-1.78 5.32-3.83 11.31-6.19 18.15zM187.44 121.9c0-23.73-19.3-43.03-43.03-43.03s-43.03 19.3-43.03 43.03 19.3 43.03 43.03 43.03 43.03-19.31 43.03-43.03zm-74.06 0c0-17.11 13.92-31.03 31.03-31.03s31.03 13.92 31.03 31.03-13.92 31.03-31.03 31.03-31.03-13.92-31.03-31.03z" fill="#000000" opacity="1" data-original="#000000"></path></g></svg>