<svg xmlns="http://www.w3.org/2000/svg" version="1.1" xmlns:xlink="http://www.w3.org/1999/xlink" width="512" height="512" x="0" y="0" viewBox="0 0 512.002 512.002" style="enable-background:new 0 0 512 512" xml:space="preserve" class=""><g><path d="M493.619 391.291c0-13.348-10.085-24.38-23.034-25.891a25.917 25.917 0 0 0 2.559-11.257c0-14.378-11.697-26.075-26.074-26.075h-31.967a47.965 47.965 0 0 0-10.373-10.356l1.529-1.529c5.628-5.629 8.728-13.111 8.728-21.071s-3.1-15.442-8.728-21.07c-5.628-5.629-13.111-8.729-21.071-8.729-7.96 0-15.443 3.101-21.071 8.729l-34.525 34.525h-97.95c-5.417 0-9.823-4.406-9.823-9.822v-94.93c0-10.094-4.627-19.126-11.87-25.09a7.5 7.5 0 0 0-.662-.521 32.46 32.46 0 0 0-7.802-4.512v-40.169c0-4.143-3.357-7.5-7.5-7.5s-7.5 3.358-7.5 7.5v37.801H53.717V81.383C53.717 44.779 83.496 15 120.1 15s66.383 29.779 66.383 66.383v17.192c0 4.143 3.357 7.5 7.5 7.5s7.5-3.357 7.5-7.5V81.383C201.482 36.508 164.975 0 120.1 0 75.225 0 38.717 36.508 38.717 81.383v92.31c-11.908 4.824-20.334 16.504-20.334 30.123V314.758c0 20.606 3.193 40.712 9.224 59.733.011.04.026.078.038.118 15.339 48.274 48.97 89.545 95.143 114.22a7.5 7.5 0 0 0 7.07-13.228c-1.052-.562-2.081-1.155-3.119-1.736l26.527-155.06 53.55-28.077v8.016c0 11.912 8.435 21.886 19.645 24.275l-29.92 172.986a181.216 181.216 0 0 1-35.363-7.275c-3.953-1.239-8.16.968-9.396 4.92a7.5 7.5 0 0 0 4.92 9.396c19.003 5.941 38.828 8.954 58.925 8.954h34.807l.032.002.023-.002h90.114l.032.002.023-.002h36.078c16.103 0 30.353-8.053 38.96-20.335h15.137c14.378 0 26.075-11.697 26.075-26.074 0-3.958-.891-7.711-2.476-11.075h7.141c14.377 0 26.074-11.697 26.074-26.074 0-5.897-1.97-11.34-5.283-15.713 6.794-4.712 11.255-12.562 11.255-21.438zM33.383 203.815c0-9.645 7.846-17.491 17.49-17.491h134.241L33.383 265.878v-62.063zm79.593 261.548c-32.192-21.938-56.157-53.302-68.99-89.262l92.562-48.532-23.572 137.794zm93.84-191.573L39.481 361.526a182.598 182.598 0 0 1-6.098-46.769v-31.942l170.124-89.197a17.377 17.377 0 0 1 3.309 10.198v69.974zm167.907 10.857c2.795-2.795 6.511-4.335 10.464-4.335s7.669 1.54 10.464 4.336c5.77 5.77 5.77 15.158 0 20.928l-5.056 5.056c-.621-.19-1.247-.37-1.878-.535-.037-.01-.072-.024-.11-.033l-.049-.01a47.472 47.472 0 0 0-11.822-1.489h-25.931l23.918-23.918zM244.585 497h-28.959c-1.343 0-2.685-.019-4.026-.048l29.989-173.387h45.792L244.585 497zm90.169 0h-74.719l42.797-173.435h73.904c.271 0 .539.014.81.021L334.754 497zm74.537-32.556c0 17.951-14.604 32.556-32.556 32.556h-26.532l41.849-169.596c10.249 5.489 17.239 16.301 17.239 28.718v108.322zm37.778-121.378c6.106.001 11.074 4.97 11.074 11.076s-4.968 11.074-11.074 11.074h-22.778v-9.095c0-4.527-.649-8.903-1.837-13.055h24.615zm-16.237 133.599h-8.14a47.425 47.425 0 0 0 1.599-12.221v-9.929h6.541c6.106 0 11.075 4.969 11.075 11.075 0 6.107-4.968 11.075-11.075 11.075zm30.74-37.149h-37.281v-22.149h37.281c6.106 0 11.074 4.969 11.074 11.075.001 6.106-4.967 11.074-11.074 11.074zm5.973-37.15h-43.254v-22.149h43.254c6.106 0 11.074 4.968 11.074 11.074s-4.968 11.075-11.074 11.075z" fill="#000000" opacity="1" data-original="#000000" class=""></path></g></svg>