<svg xmlns="http://www.w3.org/2000/svg" version="1.1" xmlns:xlink="http://www.w3.org/1999/xlink" width="512" height="512" x="0" y="0" viewBox="0 0 64 64" style="enable-background:new 0 0 512 512" xml:space="preserve" class=""><g><path d="M27.293 55.293 26 56.586a3.414 3.414 0 0 0 0 4.828l1.292 1.293A1 1 0 0 0 28 63h12a3 3 0 0 0 0-6 5.592 5.592 0 0 1-3.109-.941l-1.336-.891a1 1 0 0 0-.555-.162v-1.953L36.995 34.1a1 1 0 0 0-1.311-1.053l-.684.232v-2.661A3.966 3.966 0 0 0 36 28v-6.219l.757.189A1 1 0 0 0 38 21V10.325a9.764 9.764 0 0 0-6.684-9.274 1 1 0 0 0-.763.054l-10 5a1 1 0 0 0-.26 1.6A15.968 15.968 0 0 1 25 19.071V23a1 1 0 0 0 1.706.708l1.758 2.462a3.839 3.839 0 0 0 0 3.663l-1.117 2.237a.986.986 0 0 0-1.3.614l-.416 1.248a12.383 12.383 0 0 0 1.13 10.286A8.669 8.669 0 0 1 28 48.678v6.334a.992.992 0 0 0-.707.281Zm5.707.479a5.481 5.481 0 0 1-3 0V54h3Zm2.781 1.951A7.589 7.589 0 0 0 40 59a1 1 0 0 1 0 2H28.414l-1-1a1.415 1.415 0 0 1 0-2l.783-.783.014.007a7.486 7.486 0 0 0 6.578 0l.139-.07ZM32 32a3.939 3.939 0 0 0 1-.142v2.022a6.1 6.1 0 0 1-1.171.12 5.788 5.788 0 0 1-2.84-.741l.93-1.86A3.956 3.956 0 0 0 32 32Zm0-2a2 2 0 1 1 2-2 2 2 0 0 1-2 2Zm2-5.444a3.913 3.913 0 0 0-4.166.091l-1.659-2.323a6.493 6.493 0 0 1 5.471-1.132l.354.089ZM22.64 7.3l8.423-4.212A7.764 7.764 0 0 1 36 10.325v9.394l-1.869-.467A8.5 8.5 0 0 0 27 20.7v-1.629A17.937 17.937 0 0 0 22.64 7.3ZM27 37.847a10.363 10.363 0 0 1 .491-3.156A7.877 7.877 0 0 0 31.892 36a7.786 7.786 0 0 0 2.475-.4l.476-.159L33.1 52H30v-3.322a10.664 10.664 0 0 0-1.521-5.489A10.392 10.392 0 0 1 27 37.847Z" fill="#000000" opacity="1" data-original="#000000"></path></g></svg>