<svg xmlns="http://www.w3.org/2000/svg" version="1.1" xmlns:xlink="http://www.w3.org/1999/xlink" width="512" height="512" x="0" y="0" viewBox="0 0 128 128" style="enable-background:new 0 0 512 512" xml:space="preserve" class=""><g><g fill="#000"><path d="M13 27a2 2 0 1 0 0 4h8a2 2 0 1 0 0-4zM26 27a2 2 0 1 0 0 4h23.5a2 2 0 1 0 0-4z" fill="#000000" opacity="1" data-original="#000000"></path><path fill-rule="evenodd" d="M18 41a2 2 0 1 0 0 4h46c7.778 0 12.572 1.212 16.407 3.159 3.26 1.654 5.89 3.853 9.183 6.607.681.569 1.39 1.161 2.139 1.778l.464.382.598.063c18.26 1.922 22.371 8.094 23.209 11.254V76a2 2 0 0 1-2 2h-5.166c-.952-5.675-5.888-10-11.834-10s-10.882 4.325-11.834 10H48.834C47.882 72.325 42.946 68 37 68s-10.882 4.325-11.834 10H15.5a2 2 0 1 0 0 4h9.666c.952 5.675 5.888 10 11.834 10s10.882-4.325 11.834-10h36.332c.952 5.675 5.888 10 11.834 10s10.882-4.325 11.834-10H114a6 6 0 0 0 6-6v-8.228l-.051-.222c-1.274-5.519-7.279-12.36-26.137-14.474-.527-.436-1.044-.87-1.554-1.297-3.301-2.765-6.338-5.309-10.04-7.188C77.678 42.288 72.222 41 64 41zm71 39a8 8 0 1 1 16 0 8 8 0 0 1-16 0zm-52-8a8 8 0 1 0 0 16 8 8 0 0 0 0-16z" clip-rule="evenodd" fill="#000000" opacity="1" data-original="#000000"></path><path d="M6.5 53a2 2 0 0 1 2-2H31a2 2 0 1 1 0 4H8.5a2 2 0 0 1-2-2zM87.414 55.586a2 2 0 0 1 0 2.828l-.157.157a10 10 0 0 1-7.07 2.929H48.5a2 2 0 1 1 0-4h31.686a6 6 0 0 0 4.243-1.757l.157-.157a2 2 0 0 1 2.828 0zM50.5 101.5a2 2 0 0 1 2-2H61a2 2 0 1 1 0 4h-8.5a2 2 0 0 1-2-2zM64.5 101.5a2 2 0 0 1 2-2H89a2 2 0 1 1 0 4H66.5a2 2 0 0 1-2-2z" fill="#000000" opacity="1" data-original="#000000"></path></g></g></svg>