<svg xmlns="http://www.w3.org/2000/svg" version="1.1" xmlns:xlink="http://www.w3.org/1999/xlink" width="512" height="512" x="0" y="0" viewBox="0 0 60 60" style="enable-background:new 0 0 512 512" xml:space="preserve"><g><g transform="translate(-1)"><path d="M59.62 31.41A3 3 0 0 0 58 28.3a9 9 0 0 0-4-6.8c.07-.66 0 .5 0-4.5a5 5 0 0 0-2-4V8h2a2 2 0 0 0 2-2V2a2 2 0 0 0-2-2H44a2 2 0 0 0-2 2v4a2 2 0 0 0 2 2h2v5a5 5 0 0 0-2 4v4.5a9 9 0 0 0-4 7.06 3 3 0 0 0-1.18 1.79c-.72 3.23-3.83 6.1-5.62 7.52a7.89 7.89 0 0 1-2.93 1.48C23.62 41.11 9.69 47.92 8 48a6.42 6.42 0 0 1-1.5-.19A4.46 4.46 0 0 0 1 51.44C0 59 19.35 60 27 60c4 0 7.67-.32 10.89-.61 5.4-.48 6.78-.6 11 .1C56.61 60.78 61 60 61 52c0-6-3.42-6.09-1.38-20.59zM44 2h10v4H44zm4 6h2v4.1a5 5 0 0 0-2 0zm-2 9a3 3 0 0 1 6 0v4a3 3 0 0 1-6 0zm-1.31 6.49a5 5 0 0 0 8.62 0A7 7 0 0 1 55.93 28H42.07a7 7 0 0 1 2.62-4.51zM54 58c-3.87 0-5.9-1-10-1s-10 1-17 1c-11.63 0-24-2.1-24-6a2.44 2.44 0 0 1 3.06-2.23c2.35.53 2.5.44 10.63-3 4.68-2 10.52-4.5 14.12-5.45a10.1 10.1 0 0 0 3.67-1.85c2.43-1.94 5.51-5 6.32-8.66a1 1 0 0 1 .61-.71c.24-.1-.64-.07 15.24-.07a1 1 0 0 1 1 1.13C55.57 45.83 59 46.81 59 52c0 4.43-1.31 6-5 6z" fill="#000000" opacity="1" data-original="#000000"></path><circle cx="49" cy="21" r="1" fill="#000000" opacity="1" data-original="#000000"></circle><circle cx="49" cy="17" r="1" fill="#000000" opacity="1" data-original="#000000"></circle></g></g></svg>