<svg xmlns="http://www.w3.org/2000/svg" version="1.1" xmlns:xlink="http://www.w3.org/1999/xlink" width="512" height="512" x="0" y="0" viewBox="0 0 512.003 512.003" style="enable-background:new 0 0 512 512" xml:space="preserve"><g><path d="M207.9 376.757h-32.064a7.5 7.5 0 0 0 0 15H207.9a7.5 7.5 0 0 0 7.5-7.5 7.5 7.5 0 0 0-7.5-7.5z" fill="#242b0a" opacity="1" data-original="#242b0a"></path><path d="m396.248 284.958-46.869-18.079-23.949-23.949a7.482 7.482 0 0 0-5.819-2.176v-20.429a87.263 87.263 0 0 0 22.51-44.331c.042-.154.293-.407.466-.477 2.093.144 4.211.001 6.3-.426 10.905-2.232 18.821-12.369 18.821-24.103v-6.247c0-7.005-2.929-13.417-7.664-17.89 7.71-41.146 1.607-74.633-17.723-96.956C323.743 8.445 293.752-1.803 255.593.26c-35.82 1.936-58.699 18.619-65.494 24.287-9.546 1.191-37.794 8.042-37.794 47.331 0 22.229 3.676 40.634 6.168 50.562-8.454 3.709-14.184 12.394-14.184 22.396v6.153c0 11.733 7.916 21.87 18.821 24.103 2.089.428 4.209.571 6.3.426.172.07.424.322.464.469a87.284 87.284 0 0 0 22.512 44.337v20.43a7.483 7.483 0 0 0-5.819 2.176l-23.948 23.948-46.869 18.079c-22.213 8.568-36.498 30.308-35.544 54.097L86.844 504.8a7.5 7.5 0 0 0 14.989-.6l-6.638-165.746a40.537 40.537 0 0 1 1.914-14.053l27.275 27.275c7.668 7.668 11.891 17.863 11.891 28.707v124.118a7.5 7.5 0 0 0 15 0v-124.12c0-14.85-5.783-28.812-16.284-39.313l-30.334-30.333a40.528 40.528 0 0 1 16.493-11.783l44.1-17.01 33.582 50.374a23.445 23.445 0 0 0 17.262 10.364 23.412 23.412 0 0 0 15.57-3.972l-7.204 165.465a7.5 7.5 0 0 0 7.499 7.826 7.5 7.5 0 0 0 7.487-7.174l6.657-152.898h19.798l6.657 152.898a7.5 7.5 0 1 0 14.986-.652L280.34 338.71a23.4 23.4 0 0 0 13.226 4.088c.778 0 1.561-.039 2.344-.116a23.451 23.451 0 0 0 17.262-10.364l33.582-50.374 44.1 17.01a40.538 40.538 0 0 1 16.493 11.783l-30.334 30.333c-10.501 10.501-16.284 24.463-16.284 39.313v124.118a7.5 7.5 0 0 0 15 0V380.383c0-10.844 4.223-21.039 11.891-28.707l27.275-27.275a40.537 40.537 0 0 1 1.914 14.053L410.172 504.2a7.5 7.5 0 0 0 7.5 7.8 7.5 7.5 0 0 0 7.489-7.2l6.638-165.745c.947-23.789-13.338-45.529-35.551-54.097zM184.622 173.275c-1.411-7.699-8.531-13.286-16.219-12.724a8.377 8.377 0 0 1-2.287-.155c-3.894-.797-6.83-4.841-6.83-9.407v-6.153c0-4.552 2.979-8.508 6.93-9.202 3.256-.571 6.384.628 8.363 3.208 1.436 1.873 3.348 3.211 5.53 3.871 3.196.965 6.721.399 9.429-1.513 6.56-4.63 12.121-10.504 16.527-17.458a7.5 7.5 0 0 0-12.67-8.03c-2.681 4.23-5.911 7.926-9.629 11.024a23.453 23.453 0 0 0-10.102-5.488c-2.17-8.086-6.362-26.649-6.362-49.369 0-31.292 23.298-32.542 25.9-32.581 1.938 0 3.8-.75 5.197-2.093.208-.199 21.187-19.977 58-21.967 33.359-1.802 59.149 6.661 74.578 24.478 15.709 18.139 20.832 46.019 14.944 80.872-2.7-.184-5.784.019-8.825.594l-8.38-20.123a7.507 7.507 0 0 0-8.823-4.372c-.801.209-80.584 20.448-114.202-21.403a7.5 7.5 0 1 0-11.694 9.393c33.965 42.287 102.014 32.345 123.299 27.978l6.563 15.758c2.473 5.941 8.799 9.186 15.042 7.716 2.758-.649 5.595-.73 6.866-.478 3.955.787 6.937 4.694 6.937 9.089v6.247c0 4.566-2.936 8.61-6.83 9.407a8.37 8.37 0 0 1-2.286.155c-7.669-.564-14.808 5.025-16.222 12.726-6.326 34.442-36.342 59.441-71.372 59.441-35.029 0-65.045-24.999-71.372-59.441zm39.82 152.021a8.493 8.493 0 0 1-6.874 2.458 8.505 8.505 0 0 1-6.259-3.758l-33.838-50.758 14.739-14.739 52.815 46.213-20.583 20.584zm22.31 11.632.579-13.308 8.667-8.667 8.666 8.667.579 13.308h-18.491zm9.246-42.546-48.613-42.536v-18.874c13.997 9.349 30.76 14.747 48.613 14.747s34.616-5.398 48.613-14.746v18.873l-48.613 42.536zm44.688 29.614a8.505 8.505 0 0 1-6.259 3.758 8.494 8.494 0 0 1-6.874-2.458l-20.583-20.584 52.815-46.213 14.739 14.739-33.838 50.758z" fill="#242b0a" opacity="1" data-original="#242b0a"></path></g></svg>