<svg xmlns="http://www.w3.org/2000/svg" width="512" height="512" style="enable-background:new 0 0 512 512" xml:space="preserve"><g fill="#9e9e9e"><path d="M256 0C114.617 0 0 114.617 0 256s114.617 256 256 256 256-114.617 256-256C511.844 114.68 397.32.156 256 0zm0 486.398C128.754 486.398 25.602 383.246 25.602 256S128.754 25.602 256 25.602 486.398 128.754 486.398 256C486.254 383.184 383.184 486.254 256 486.398zm0 0" data-original="#9e9e9e"/><path d="M294.398 371.2h-25.597V204.8c0-7.07-5.73-12.8-12.801-12.8h-25.602c-7.066 0-12.796 5.73-12.796 12.8 0 7.071 5.73 12.798 12.796 12.798H243.2v153.601h-25.601c-7.067 0-12.797 5.73-12.797 12.797 0 7.07 5.73 12.8 12.797 12.8h76.8c7.07 0 12.801-5.73 12.801-12.8 0-7.066-5.73-12.797-12.8-12.797zM281.602 128c0 14.137-11.465 25.598-25.602 25.598S230.398 142.137 230.398 128c0-14.14 11.465-25.602 25.602-25.602S281.602 113.86 281.602 128zm0 0" data-original="#9e9e9e"/></g></svg>