<svg xmlns="http://www.w3.org/2000/svg" width="512" height="512" style="enable-background:new 0 0 512 512" xml:space="preserve"><path d="M485.524 435.398c-29.622.677-59.209-4.243-106.293-30.914l.433-1.345c2.878-8.999-1.452-18.716-10.086-22.617-16.044-7.165-33.645-17.127-53.635-30.32 2.634-7.453-.335-15.976-7.372-20.041l-13.807-8.081c-5.754-3.328-12.783-2.838-17.89.645a1188.498 1188.498 0 0 1-17.12-12.817c2.728-5.669 2.181-12.66-1.915-17.803l-9.964-12.521c-4.908-6.146-13.283-7.883-20.133-4.737-3.158-5.06-5.595-9.991-7.217-14.734 7.521-2.789 12.212-10.612 10.709-18.709l-2.861-15.733c-1.256-6.901-6.608-12.022-13.144-13.374a944.765 944.765 0 0 1-1.014-22.169c6.885-2.108 11.941-8.464 11.941-16.05v-15.937c0-7.788-5.349-14.292-12.547-16.191.057-5.262.118-10.509.238-15.734.185-9.381-6.667-17.899-16.881-18.836.973-30.366 2.722-58.825 4.765-89.938.092-1.412-.404-2.793-1.369-3.826S198.045 12 196.633 12H25.361a5.113 5.113 0 0 0-3.911 1.821 5.102 5.102 0 0 0-1.12 4.165c5.184 29.672 9.117 59.746 11.796 89.497-10.094 1.453-16.513 10.345-15.844 19.715 5.377 74.39 2.811 150.391-7.627 225.888a18.609 18.609 0 0 0 4.487 14.85c2.658 3.002 6.261 4.999 10.082 5.846-.916 5.87-1.839 11.736-2.836 17.638-8.383 25.939-4.574 53.843 9.976 72.913 16.678 21.865 43.585 28.721 71.053 27.351 2.027-.115 8.435-2.021 34.415-6.342 2.218 9.799 11.325 15.815 20.595 14.467 61.288-8.608 120.347-9.573 178.188-4.365 8.704.868 16.805-4.534 19.454-12.765l.875-2.719c38.954 4.257 84.734 7.074 113.022 8.814 19.899 0 35.551-16.177 35.551-35.601 0-9.754-7.783-17.879-17.993-17.775zM289.616 330.909l13.822 8.086c3.04 1.753 4.212 5.78 2.339 8.979a.203.203 0 0 0-.025.045l-29.969 51.459c-4.035 6.944-12.979 9.283-19.926 5.258-7.365-4.312-9.076-13.537-5.268-19.988 32.242-55.292 29.936-51.496 30.615-52.287 1.985-2.539 5.63-3.177 8.412-1.552zm-54.876-47.423c1.935 0 3.851.848 5.143 2.469l9.962 12.516c2.103 2.639 1.838 6.53-.599 8.849-.03.03-.444.389-.474.419l-46.65 37.098c-6.445 5.147-15.562 3.826-20.457-2.329-4.946-6.154-4.053-15.399 2.312-20.492l46.64-37.088a6.61 6.61 0 0 1 4.123-1.442zm-16.419-55.988 2.863 15.753c.658 3.542-1.726 6.969-5.31 7.632-.005 0-.007.005-.01.005l-58.555 10.715c-18.928 3.477-24.495-25.164-5.27-28.667l58.702-10.755c.09-.005.177-.015.267-.025 3.472-.459 6.69 1.91 7.313 5.342zm-2.382-69.357v15.937c0 3.661-2.956 6.639-6.589 6.639h-59.558c-8.056 0-14.611-6.555-14.611-14.611 0-8.19 6.678-14.556 14.611-14.556h59.557c3.695.002 6.59 2.895 6.59 6.591zM191.18 22.217c-1.9 29.154-3.513 56.192-4.432 84.995H42.368c-2.528-28.242-6.176-56.78-10.947-84.995zM100.519 481.5c-27.937 1.307-49.381-6.774-62.034-23.36-12.608-16.526-15.775-41.013-8.271-63.904.325-.976 3.083-18.727 3.24-19.739 54.603 2.409 98.565 45.995 101.582 100.62-11.548 1.905-23.135 4.019-34.517 6.383zm235.048 3.776c-60.545-5.45-120.28-4.044-180.575 4.42-4.801.714-9.44-3.052-9.44-8.834 0-64.413-52.404-116.82-116.82-116.82-.689-.111-4.819.653-7.939-2.873-1.636-1.851-2.352-4.23-2.018-6.694 10.533-76.195 13.124-152.91 7.697-228.008-.354-4.898 3.463-9.039 8.338-9.039h160.442c4.698 0 8.473 3.882 8.38 8.57-.118 5.087-.175 10.208-.232 15.339h-53.608c-13.498 0-24.827 10.841-24.827 24.772 0 13.688 11.136 24.827 24.827 24.827h54.229c.259 7.479.595 14.802 1.005 21.918l-54.823 10.036c-31.988 5.823-23.98 54.759 8.934 48.765l51.376-9.393c1.933 6.013 4.923 12.21 8.91 18.519l-41.816 33.248c-10.887 8.706-12.304 24.424-3.923 34.853 8.533 10.74 24.186 12.45 34.81 3.936l44.374-35.308a1222.71 1222.71 0 0 0 17.462 13.087l-28.552 48.983c-6.784 11.507-3.05 26.969 8.931 33.98 11.841 6.889 27.043 2.847 33.903-8.944l26.446-45.396c20.155 13.255 37.994 23.326 54.334 30.621 3.886 1.756 5.836 6.136 4.544 10.176l-25.595 79.533c-1.206 3.755-4.773 6.155-8.774 5.726zm132.398-6.714c-27.491-1.632-71.994-4.273-109.827-8.527l17.882-55.572c46.83 26.341 78.527 31.859 109.689 31.152 4.597.01 7.592 3.615 7.592 7.562 0 13.624-10.996 25.385-25.336 25.385z" data-original="#000000"/></svg>