<svg xmlns="http://www.w3.org/2000/svg" version="1.1" xmlns:xlink="http://www.w3.org/1999/xlink" width="512" height="512" x="0" y="0" viewBox="0 0 512 512" style="enable-background:new 0 0 512 512" xml:space="preserve" fill-rule="evenodd" class=""><g><path d="M415.38 369.81H268.56c-3.31 0-6-2.69-6-6 0-3.32 2.69-6 6-6h140.82v-80.59c0-3.31 2.68-6 6-6 3.31 0 5.99 2.69 5.99 6v86.59c0 3.31-2.68 6-5.99 6zm-187.19 0H90c-3.31 0-6-2.69-6-6v-56.27c0-3.31 2.69-6 6-6s6 2.69 6 6v50.27h132.19c3.31 0 6 2.68 6 6 0 3.31-2.69 6-6 6zM90 228.97c-3.31 0-6-2.69-6-6V110.56c0-3.31 2.69-6 6-6h325.38c1.59 0 3.11.64 4.24 1.76a6.02 6.02 0 0 1 1.75 4.24v104.77c0 3.31-2.69 6-6 6-3.32 0-6-2.69-6-6l.01-98.77H96v106.41c0 3.31-2.69 6-6 6z" fill="#242b0a" opacity="1" data-original="#242b0a" class=""></path><path d="M444.72 116.56H60.65c-3.31 0-6-2.68-6-6V65.87c0-3.31 2.69-6 6-6h384.07c3.31 0 6 2.69 6 6v44.69c0 3.32-2.69 6-6 6zm-378.07-12h372.07V71.87H66.65zM322.86 330.6H173.89c-3.31 0-6-2.69-6-6v-38.03c0-3.31 2.69-6 6-6h148.97c3.31 0 6 2.69 6 6v38.03c0 3.31-2.69 6-6 6zm-142.97-12h136.97v-26.03H179.89z" fill="#242b0a" opacity="1" data-original="#242b0a" class=""></path><path d="M268.56 420.37h-40.37c-3.32 0-6-2.69-6-6V324.6c0-3.32 2.68-6 6-6h40.37c3.32 0 6 2.68 6 6v89.77c0 3.31-2.68 6-6 6zm-34.38-12h28.38V330.6h-28.38z" fill="#242b0a" opacity="1" data-original="#242b0a" class=""></path><path d="M287.48 452.13h-78.21c-3.31 0-6-2.69-6-6.01v-31.75c0-3.31 2.69-6 6-6h78.21c3.31 0 6 2.69 6 6v31.75c0 3.32-2.69 6.01-6 6.01zm-72.21-12.01h66.21v-19.75h-66.21zM47.79 438.99c-3.31 0-6-2.69-6-6V267.5c0-3.31 2.69-6 6-6s6 2.69 6 6v165.49c0 3.32-2.69 6-6 6z" fill="#242b0a" opacity="1" data-original="#242b0a" class=""></path><path d="M6 438.99a5.95 5.95 0 0 1-4.24-1.76 6 6 0 0 1 0-8.48l41.79-41.79a6 6 0 0 1 8.48 0 5.993 5.993 0 0 1 0 8.49l-41.78 41.78A5.972 5.972 0 0 1 6 438.99z" fill="#242b0a" opacity="1" data-original="#242b0a" class=""></path><path d="M89.57 438.99a5.95 5.95 0 0 1-4.24-1.76l-41.78-41.78a5.993 5.993 0 0 1 0-8.49 6 6 0 0 1 8.48 0l41.79 41.79a6 6 0 0 1 0 8.48 5.955 5.955 0 0 1-4.25 1.76zM29.77 292.19c-3.31 0-6-2.69-6-6V248.8c0-3.31 2.69-6 6-6 3.32 0 6 2.69 6 6v37.39c0 3.32-2.68 6-6 6z" fill="#242b0a" opacity="1" data-original="#242b0a" class=""></path><path d="M65.81 273.5H29.77c-3.31 0-6-2.69-6-6s2.69-6 6-6h36.04c3.31 0 6 2.69 6 6s-2.69 6-6 6z" fill="#242b0a" opacity="1" data-original="#242b0a" class=""></path><path d="M114.19 327.83a5.93 5.93 0 0 1-3.05-.83l-48.39-28.59a6.002 6.002 0 0 1-2.94-5.16v-51.5c0-1.85.85-3.6 2.32-4.74l48.38-37.57a5.987 5.987 0 0 1 6.32-.65 6.017 6.017 0 0 1 3.36 5.39v117.65c0 2.16-1.16 4.15-3.03 5.22-.92.52-1.95.78-2.97.78zm-42.38-38.01 36.38 21.5v-94.88l-36.38 28.25zM433.74 309.85c-1.01 0-2.02-.25-2.93-.77a5.984 5.984 0 0 1-3.05-5.74c.24-3.01-.09-11.85-4.46-16.6-2.22-2.39-5.31-3.56-9.46-3.56-1.56 0-3.27.17-5.08.5-1.84.34-3.71-.19-5.1-1.44a5.983 5.983 0 0 1-1.97-4.9c0-.06.52-9.71-5.69-16.65-4.21-4.69-10.73-7.28-19.39-7.69-1.83-.09-3.51-1-4.58-2.49a6.006 6.006 0 0 1-.91-5.13c.64-2.37 1.61-9.52-1.67-13.8-2.62-3.43-7.97-4.94-15.7-4.46a6.016 6.016 0 0 1-6.03-3.97 6.006 6.006 0 0 1 2.16-6.89c13.18-9.46 26.59-14.25 39.87-14.25 30.37 0 52.09 24.66 60.14 49.1 7.89 23.94 3.07 46-12.58 57.56a6.016 6.016 0 0 1-3.57 1.18zm-19.9-38.67c7.5 0 13.84 2.59 18.33 7.49 2.98 3.25 4.82 7.1 5.95 10.83 5.11-10.31 3.97-23.72.37-34.64-6.7-20.33-24.36-40.85-48.73-40.85-6.13 0-12.36 1.32-18.65 3.93 3.2 1.54 5.85 3.68 7.93 6.43 4.28 5.65 4.97 12.37 4.7 17.33 8.95 1.51 16.1 5.23 21.32 11.12 5.39 6.09 7.45 13.21 8.21 18.36z" fill="#242b0a" opacity="1" data-original="#242b0a" class=""></path><path d="M462.5 443.13c-3.32 0-6-2.69-6-6V222.76l-24.73 10a5.996 5.996 0 0 1-7.81-3.32c-1.25-3.07.24-6.57 3.31-7.81l32.98-13.33c1.84-.74 3.94-.53 5.6.59a6.023 6.023 0 0 1 2.65 4.98v223.26c0 3.31-2.69 6-6 6z" fill="#242b0a" opacity="1" data-original="#242b0a" class=""></path><path d="M420.58 443.13a5.9 5.9 0 0 1-2.99-.81 5.99 5.99 0 0 1-2.2-8.19l42.71-73.97c1.65-2.87 5.32-3.85 8.19-2.2 2.87 1.66 3.86 5.33 2.2 8.2l-42.71 73.97c-1.11 1.92-3.13 3-5.2 3z" fill="#242b0a" opacity="1" data-original="#242b0a" class=""></path><path d="M506 443.13c-2.07 0-4.09-1.08-5.2-3l-42.7-73.97a6 6 0 0 1 2.19-8.2 6.012 6.012 0 0 1 8.2 2.2l42.7 73.97c1.66 2.87.68 6.54-2.19 8.19-.95.55-1.98.81-3 .81z" fill="#242b0a" opacity="1" data-original="#242b0a" class=""></path></g></svg>