<svg xmlns="http://www.w3.org/2000/svg" version="1.1" xmlns:xlink="http://www.w3.org/1999/xlink" width="24" height="24" x="0" y="0" viewBox="0 0 100 100" style="enable-background:new 0 0 512 512" xml:space="preserve" class=""><g><path fill="#559127" d="M24.925 6c2.281.005 4.539.374 6.665 1.203l5.29 33.401c-2.33 1.871-5.118 3.17-8.174 3.781 4.619 11.759 15.129 22.399 26.908 27.061a18.549 18.549 0 0 1 3.59-8.097l33.688 5.347c3.959 10.427-2.847 22.653-13.387 25.113-3.166.252-6.604.273-9.759-.019C35.677 91.422 8.521 64.227 6.191 30.158a61.021 61.021 0 0 1 0-9.702C8.368 12.13 15.911 6 24.925 6z" opacity="1" data-original="#43a047" class=""></path></g></svg>