<svg xml:space="preserve" width="566.929" height="277.033" version="1.1" style="clip-rule:evenodd;fill-rule:evenodd;image-rendering:optimizeQuality;shape-rendering:geometricPrecision;text-rendering:geometricPrecision" viewBox="0 0 14999.998 7329.838" id="svg28" xmlns:xlink="http://www.w3.org/1999/xlink" xmlns="http://www.w3.org/2000/svg"><defs id="defs13"><radialGradient id="id0" gradientUnits="userSpaceOnUse" gradientTransform="matrix(1 0 0 .4306 0 4220)" cx="12485.15" cy="7410.56" r="4627" fx="12485.15" fy="7410.56"><stop offset="0" style="stop-opacity:1;stop-color:#d9c846" id="stop4"/><stop offset=".4" style="stop-opacity:1;stop-color:#9fae49" id="stop6"/><stop offset="1" style="stop-opacity:1;stop-color:#66944b" id="stop8"/></radialGradient><radialGradient id="id1" gradientUnits="userSpaceOnUse" gradientTransform="matrix(.85454 0 0 1 770 0)" xlink:href="#id0" cx="5294.87" cy="4953.32" r="722.86" fx="5294.87" fy="4953.32"/><radialGradient id="id2" gradientUnits="userSpaceOnUse" gradientTransform="matrix(.8633 0 0 1 765 0)" xlink:href="#id0" cx="5599.81" cy="7569.18" r="3303.98" fx="5599.81" fy="7569.18"/><radialGradient xlink:href="#id0" id="radialGradient32" gradientUnits="userSpaceOnUse" gradientTransform="matrix(1 0 0 .4306 0 4220)" cx="12485.15" cy="7410.56" fx="12485.15" fy="7410.56" r="4627"/><style type="text/css" id="style2">.fil0{fill:#000}</style></defs><g id="Слой_x0020_1" transform="translate(-2492.402 -3836.554)"><g id="_1856076533312"><path class="fil0" d="M8344.43 5230.04c254.96 0 469.42 97.06 642.15 283.81l36.38 39.31-282.21 261.94-36.54-35.73c-100.19-97.98-220.23-143.28-359.78-143.28-124.2 0-229.68 41.25-316.55 130.78-90.71 93.51-127.57 208.53-127.57 337.25 0 128.8 36.09 244.84 127.42 338.23 87.09 89.07 192.75 129.8 316.7 129.8 139.18 0 260.33-43.11 359.22-142.73l36.54-36.81 282.77 262.48-36.38 39.31c-172.72 186.75-387.2 283.79-642.15 283.79-239.45 0-445.18-85.8-613.54-256.08-168.81-170.71-252.97-378.08-252.97-617.99 0-239.91 84.16-447.28 252.97-617.99 168.36-170.29 374.09-256.09 613.54-256.09zm1840.69 1068.47c93.37 54.8 140.04 146.94 140.04 267.54 0 115.97-30.04 231.04-126.05 304.57-99.54 76.23-248.82 91.49-370.55 91.49h-654.15V5705.76h651.86c244.65 0 446.37 91.52 446.37 366.18 0 90.71-26.42 170.18-87.52 226.57zm926.64-608.84c176.97 0 329.4 63.5 453.74 189.47 123.98 125.61 186.71 278.3 186.71 454.79 0 176.26-62.58 328.7-186.84 453.77-124.55 125.36-277 188.2-453.61 188.2-176.38 0-328.59-62.68-452.59-188.33-123.63-125.27-185.57-277.73-185.57-453.64 0-176.96 61.97-330.39 186.83-456.07 123.96-124.75 275.4-188.19 451.33-188.19zm1202.02 135.87c13.9-9.44 28.39-18.14 43.38-26.14 72.14-38.5 150.22-56.87 231.88-56.87 162.77 0 310.01 49.24 424.52 168.1 112.75 117.03 161.14 262.48 161.14 423.3 0 175.45-55.02 331.99-176.93 459.87-124.86 130.97-284.76 186.7-463.52 186.7-176.85 0-331.67-59.15-456.16-186.16-130.33-132.99-182-302.33-182-485.68v-275.78c0-190.07 48.6-373.09 188.74-508.54 142.26-137.48 334.51-181.69 527.06-181.69 28.82 0 98.23-1.07 123.19-14.37 9.9-5.28 10.38-18.62 10.38-28.51v-53.64h397.27v53.64c0 111.79-28.47 221.63-115.33 297.74-94.22 82.56-244.72 98.33-365.29 98.33h-73.07c-77.17 0-160.36 13.61-222.26 62.99-24.16 19.27-41.36 41.74-53 66.71zm1642.96-135.87c176.96 0 329.4 63.5 453.74 189.47 123.98 125.61 186.71 278.3 186.71 454.79 0 176.26-62.58 328.7-186.84 453.77-124.55 125.36-277 188.2-453.61 188.2-176.39 0-328.59-62.68-452.59-188.33-123.64-125.27-185.57-277.73-185.57-453.64 0-176.96 61.97-330.39 186.83-456.07 123.95-124.75 275.39-188.19 451.33-188.19zm1763.84 1272.44h-643.9v213.72h-397.26v-603.68h192.74l397.3-866.39h256.07l397.29 866.39h195.04v603.68h-397.28zm1395.1-97.65c-94.67 76.44-209.02 111.44-336.8 111.44-171.97 0-319.92-60.95-437.64-187.11-118.8-127.31-173.13-281.77-173.13-454.86 0-173.34 54.5-328.01 173-455.87 117.51-126.79 265.41-188.39 437.77-188.39 128.23 0 242.48 35.65 336.89 112.79l9.46-96.7h296.38v1256.35h-296.38zm-6332.03 827.79c168.36-170.28 374.09-256.08 613.54-256.08 239.67 0 445.67 85.99 614.57 255.99 169.41 170.51 254.2 377.82 254.2 618.09 0 240.26-84.79 447.57-254.2 618.09-168.9 170-374.9 255.98-614.57 255.98-239.45 0-445.18-85.8-613.54-256.08-168.82-170.71-252.97-378.08-252.97-617.99 0-239.92 84.15-447.29 252.97-618zm2037.22 318.01c95.48-76.75 210.42-112.17 339.01-112.17 171.73 0 319.49 60.8 436.64 187.25 118.12 127.49 171.84 282.02 171.84 454.72 0 172.99-53.88 327.69-171.72 455.74-116.95 127.08-264.64 188.52-436.76 188.52-90.82 0-174.54-21.24-247.75-67.32v474.09h-397.27v-1679.2h296.36zm4031.07-114.47c176.97 0 329.4 63.51 453.74 189.48 123.98 125.6 186.72 278.3 186.72 454.79 0 176.26-62.59 328.71-186.85 453.77-124.55 125.36-277 188.2-453.61 188.2-176.37 0-328.59-62.69-452.59-188.33-123.65-125.27-185.57-277.72-185.57-453.64 0-176.96 61.98-330.38 186.84-456.07 123.94-124.77 275.4-188.2 451.32-188.2zm-1801.14 176.82c36.91-46.5 82.63-84.2 136.43-113.01 84.2-45.08 176.88-63.81 271.91-63.81 158.39 0 305.62 45.65 410.78 169.45 105.46 124.17 140.63 283.13 140.63 442.65v660.35h-397.28v-641.96c0-142.45-43.23-240.53-199.78-240.53-60.89 0-119.09 14.52-160.92 61.37-47.09 52.75-57.15 136.48-57.15 204.43v616.69h-397.28v-641.96c0-142.46-43.22-240.53-199.79-240.53-60.89 0-119.07 14.52-160.91 61.37-47.1 52.76-57.16 136.48-57.16 204.43v616.69h-397.27V7911.89h295.58l11.72 102.2c95.43-85.17 219.74-118.3 353.7-118.3 164.55 0 309.54 50.21 406.79 176.82zM9571.68 6061.25v97.23l237.58.01c39.13-.75 66.11-6.15 66.11-49.78 0-44.25-31.33-47.46-69.64-47.46zm0 545.37h263.72c50.83 0 92.5-7.19 92.5-65.86 0-55.64-40.56-62.79-87.93-63.56h-268.29zm1709.17-456.15c-47.39-46.45-102.43-70.85-169.09-70.85-66.65 0-121.71 24.4-169.09 70.85-51.3 50.31-71.81 112.51-71.81 183.46 0 70.24 19.78 132.43 70.67 182.31 47.67 46.72 103.45 69.7 170.23 69.7 66.5 0 121.72-23.87 169.35-69.94 51.35-49.68 71.55-111.61 71.55-182.07 0-70.95-20.49-133.15-71.81-183.46zm1253.4-31.77c-66.18 0-121.77 22.87-169.87 68.15-48.72 45.85-71.03 101.13-71.03 167.77 0 66.59 20.97 122.89 69.87 168.89 48.38 45.48 104.76 67.02 171.03 67.02s122.65-21.54 171.03-67.02c48.92-46 69.87-102.3 69.87-168.89 0-66.84-22.81-121.89-71.93-167.53-48-44.6-103.11-68.39-168.97-68.39zm1591.57 31.77c-47.38-46.45-102.43-70.85-169.08-70.85s-121.71 24.4-169.09 70.85c-51.31 50.31-71.81 112.51-71.81 183.46 0 70.24 19.77 132.43 70.67 182.31 47.67 46.72 103.45 69.7 170.23 69.7 66.49 0 121.72-23.88 169.34-69.94 51.36-49.68 71.56-111.6 71.56-182.07 0-70.95-20.52-133.15-71.82-183.46zm1271.68 170.75-111.54 250.93h223.07zm1408.78 264.72c66.5 0 121.72-23.87 169.34-69.94 51.35-49.68 71.56-111.61 71.56-182.07 0-70.95-20.5-133.15-71.81-183.46-47.39-46.45-102.43-70.85-169.09-70.85-66.65 0-121.71 24.4-169.09 70.85-51.31 50.31-71.81 112.51-71.81 183.46 0 70.24 19.77 132.43 70.67 182.31 47.67 46.72 103.45 69.7 170.23 69.7zm-5091.27 1387.22c-87.45-89.41-193.24-130.95-317.82-130.95-124.2 0-229.68 41.26-316.55 130.79-90.72 93.5-127.57 208.53-127.57 337.25 0 128.8 36.09 244.83 127.42 338.23 87.08 89.07 192.74 129.8 316.7 129.8 124.56 0 231.33-40.18 318.96-129.8 91.33-93.4 127.43-209.42 127.43-338.23 0-128.98-37.32-243.8-128.57-337.09zm1415.19 821.2c66.64 0 121.69-24.38 169.07-70.83 51.32-50.31 71.82-112.52 71.82-183.47 0-70.23-19.78-132.44-70.67-182.3-47.67-46.73-103.45-69.7-170.22-69.7-66.49 0-121.74 23.88-169.35 69.94-51.36 49.68-71.55 111.59-71.55 182.06 0 70.95 20.5 133.16 71.81 183.47 47.38 46.45 102.44 70.83 169.09 70.83zm3890.83-437.76c-47.39-46.45-102.43-70.85-169.09-70.85-66.65 0-121.71 24.4-169.09 70.85-51.29 50.31-71.8 112.52-71.8 183.46 0 70.24 19.76 132.43 70.66 182.31 47.67 46.72 103.45 69.7 170.23 69.7 66.5 0 121.72-23.87 169.35-69.95 51.36-49.67 71.56-111.59 71.56-182.06 0-70.95-20.5-133.15-71.82-183.46z" id="path16"/><path d="M8344.43 5272.96c242.87 0 445.93 91.95 610.65 270.03l7.28 7.86-220.84 204.98-7.3-7.14c-108.12-105.75-238.84-155.52-389.79-155.52-135.98 0-252.48 46.03-347.35 143.82-98.38 101.39-139.69 226.84-139.69 367.13 0 140.15 40.4 266.73 139.65 368.24 95.09 97.24 211.7 142.71 347.39 142.71 150.96 0 282.83-47.86 389.68-155.41l7.3-7.36 220.95 205.09-7.28 7.87c-164.72 178.07-367.79 270.02-610.65 270.02-228.04 0-422.69-81.18-583.03-243.34-160.87-162.68-240.56-359.1-240.56-587.82 0-228.72 79.69-425.14 240.56-587.82 160.34-162.16 354.99-243.34 583.03-243.34zm1752.42 1033.57c121.65 38.18 185.4 124.27 185.4 259.52 0 102.12-24.52 205.62-109.24 270.5-90.94 69.65-233.99 82.64-344.45 82.64h-611.24V5748.68h608.95c222.67 0 403.46 75.43 403.46 323.26 0 107.5-40.06 190.06-132.88 234.59zm1014.91-573.95c165.53 0 306.91 58.88 423.2 176.71 116.08 117.6 174.33 259.4 174.33 424.64 0 164.97-58.07 306.48-174.36 423.52-116.5 117.26-257.92 175.53-423.17 175.53-164.98 0-306.11-58.08-422.05-175.56-115.71-117.25-173.2-258.79-173.2-423.49 0-165.72 57.5-308.19 174.37-425.82 115.93-116.69 256.36-175.53 420.88-175.53zm1138.67 211.55c33.25-45.06 76.74-80.07 126.93-106.86 65.92-35.18 136.97-51.83 211.68-51.83 151.42 0 287.5 44.82 393.61 154.96 104.8 108.78 149.13 243.51 149.13 393.53 0 164.72-50.98 310.58-165.07 430.26-116.46 122.15-265.08 173.39-432.46 173.39-165.56 0-309.26-54.68-425.5-173.28-122.15-124.63-169.75-283.26-169.75-455.64v-275.78c0-178.35 44.28-350.71 175.66-477.68 133.85-129.37 316.21-169.64 497.23-169.64 37.63 0 109.5-1.36 143.37-19.41 25.53-13.61 33.12-38.78 33.12-66.38v-10.73h311.43v10.73c0 99.01-23.61 197.92-100.69 265.46-85.15 74.6-228.96 87.69-337.01 87.69h-73.07c-87.46 0-179.01 16.49-249.03 72.36-64.58 51.51-89.58 122.84-89.58 204.18zm1706.31-211.55c165.53 0 306.9 58.88 423.2 176.71 116.07 117.6 174.33 259.4 174.33 424.64 0 164.97-58.07 306.48-174.37 423.52-116.49 117.26-257.91 175.53-423.16 175.53-164.98 0-306.11-58.08-422.05-175.56-115.71-117.25-173.2-258.79-173.2-423.49 0-165.72 57.5-308.19 174.37-425.82 115.93-116.69 256.36-175.53 420.88-175.53zm1806.76 1186.61h-729.74v213.73h-311.43v-517.85h177.36l397.3-866.39H15498l397.28 866.39h179.66v517.85h-311.44ZM17149.75 6772c-96.13 110.56-221.99 160.98-370.87 160.98-160.22 0-296.76-56.11-406.27-173.47-111.21-119.16-161.58-263.09-161.58-425.58 0-162.79 50.58-306.96 161.56-426.7 109.31-117.93 245.75-174.65 406.29-174.65 149.53 0 275.14 51.49 370.89 163.05l14.39-146.95h214.53v1170.51h-214.53zm-6335.59 950.42c160.33-162.15 354.99-243.33 583.03-243.33 228.29 0 423.24 81.38 584.12 243.31 161.45 162.5 241.73 358.84 241.73 587.85 0 229.01-80.28 425.34-241.73 587.84-160.88 161.94-355.83 243.32-584.12 243.32-228.04 0-422.7-81.18-583.03-243.34-160.87-162.68-240.57-359.1-240.57-587.82 0-228.72 79.7-425.14 240.57-587.83zm1972.6 379.82c97.24-110.41 223.61-161.23 373.12-161.23 159.94 0 296.23 55.93 405.16 173.5 110.58 119.36 160.4 263.38 160.4 425.55 0 162.49-50.02 306.75-160.38 426.68-108.72 118.14-244.92 174.67-405.18 174.67-112.83 0-211.28-35.27-290.67-112.81v519.58h-311.43V7954.8h214.53zm4065.18-163.53c165.53 0 306.9 58.88 423.2 176.71 116.07 117.6 174.34 259.39 174.34 424.64 0 164.97-58.08 306.48-174.38 423.52-116.49 117.26-257.91 175.53-423.16 175.53-164.97 0-306.11-58.09-422.05-175.56-115.72-117.25-173.2-258.79-173.2-423.49 0-165.72 57.51-308.18 174.38-425.82 115.92-116.69 256.35-175.53 420.87-175.53zm-2593.37 175.38c90.06-127.75 228.35-175.38 385.44-175.38 174.27 0 320.22 58.81 406.42 211.01 37.25-65.47 89.76-116.25 157.06-152.29 77.96-41.74 163.7-58.72 251.65-58.72 145.94 0 281.46 40.58 378.07 154.32 98.62 116.1 130.42 265.87 130.42 414.86v617.43h-311.44v-599.04c0-168.18-62.06-283.44-242.7-283.44-73.69 0-142.74 19.48-192.93 75.7-55.04 61.65-68.06 153.45-68.06 233.01v573.77h-311.44v-599.04c0-168.19-62.06-283.44-242.71-283.44-73.69 0-142.73 19.48-192.92 75.7-55.04 61.65-68.07 153.44-68.07 233.01v573.77h-311.43V7954.8h214.38zm-4729.8-2095.76v183.07h281.31c63.74-1.22 108.2-23.82 108.2-92.69 0-70.86-49.35-90.38-112.55-90.38zm0 631.21h306.63c75.82 0 135.41-23.73 135.41-108.78 0-81.86-58.09-105.3-130.84-106.48h-311.2zm1782.12-529.71c-55.48-54.39-121.29-83.12-199.13-83.12-77.83 0-143.66 28.73-199.13 83.12-59.5 58.33-84.68 131.34-84.68 214.1 0 82.08 24.44 155.04 83.54 212.97 55.72 54.6 122.25 81.96 200.27 81.96 77.59 0 143.49-28.15 199.19-82.02 59.67-57.72 84.63-130.52 84.63-212.91 0-82.76-25.18-155.77-84.69-214.1zm1223.36-44.05c-77.09 0-143.19 27.02-199.29 79.82-57.29 53.93-84.53 120.46-84.53 199.02 0 78.59 25.9 146.1 83.39 200.15 56.33 52.97 123.17 78.68 200.43 78.68s144.1-25.71 200.43-78.68c57.5-54.05 83.39-121.55 83.39-200.15 0-78.84-27.8-145.24-85.63-198.97-56.03-52.07-121.55-79.87-198.19-79.87zm1621.61 44.05c-55.47-54.39-121.29-83.12-199.12-83.12s-143.66 28.73-199.13 83.12c-59.5 58.33-84.69 131.34-84.69 214.1 0 82.08 24.44 155.04 83.55 212.97 55.72 54.6 122.25 81.96 200.27 81.96 77.58 0 143.49-28.16 199.17-82.02 59.68-57.72 84.64-130.51 84.64-212.91 0-82.76-25.19-155.77-84.69-214.1zm1241.64 95.73-177.58 399.51h355.15zm1408.78 413.3c77.59 0 143.49-28.15 199.18-82.02 59.68-57.72 84.63-130.52 84.63-212.91 0-82.76-25.18-155.77-84.68-214.1-55.48-54.39-121.29-83.12-199.13-83.12-77.83 0-143.66 28.73-199.13 83.12-59.5 58.33-84.69 131.34-84.69 214.1 0 82.08 24.44 155.04 83.55 212.97 55.72 54.6 122.25 81.96 200.27 81.96zM11745.7 7943.15c-95.47-97.6-212.23-143.85-348.51-143.85-135.98 0-252.48 46.03-347.36 143.82-98.37 101.39-139.68 226.83-139.68 367.13 0 140.15 40.4 266.73 139.65 368.24 95.08 97.24 211.7 142.71 347.39 142.71 136.34 0 254.04-44.94 349.65-142.71 99.26-101.51 139.66-228.09 139.66-368.24 0-140.61-41.84-265.91-140.8-367.1zm1384.5 301.99c-77.59 0-143.51 28.16-199.19 82.02-59.67 57.72-84.63 130.5-84.63 212.9 0 82.77 25.18 155.78 84.68 214.11 55.47 54.39 121.31 83.11 199.14 83.11 77.82 0 143.64-28.72 199.12-83.11 59.5-58.33 84.69-131.34 84.69-214.11 0-82.07-24.45-155.03-83.55-212.96-55.71-54.6-122.24-81.96-200.26-81.96zm3920.87 80.81c-55.48-54.38-121.29-83.11-199.13-83.11-77.83 0-143.66 28.73-199.13 83.11-59.49 58.34-84.67 131.36-84.67 214.11 0 82.08 24.43 155.04 83.53 212.96 55.72 54.6 122.25 81.96 200.27 81.96 77.59 0 143.49-28.14 199.19-82.01 59.67-57.72 84.64-130.51 84.64-212.91 0-82.76-25.2-155.77-84.7-214.11z" id="path18" style="fill:url(#radialGradient32)"/><path class="fil0" d="M6387.73 8235.88c71.03 166.51 143.06 334.6 229.75 493.66 93.23 171.04 204.62 332.04 316.94 490.93 150.24 212.51 307.3 417.94 478.41 614.13 197.05 225.94 409.53 436.9 626 644.06 248.34 237.67 713.41 653.47 685.29 685.75-28.12 32.28-568.31-337.64-846.69-537.25-236.36-169.46-464.81-347.01-687.48-534.11-211.24-177.49-416.42-361.8-622.25-545.51-163.19-145.66-328.13-291.93-481.26-448.25-138.28-141.13-266.94-291.41-394.24-442.41l-26.35-31.25 657.72-611.57 19.02 67.72c14.48 51.53 29.8 102.82 45.14 154.1zm-991.16-4096.65c208.51 18.88 401.58 98.86 512.64 284.77 159.6 267.14 86.52 643.7-38.49 911.61-226.94 486.32-840.74 622.65-1132.96 113.81-18.29-31.86-34.94-64.66-49.93-98.21-134.09-300.08-148.61-706.98 66.15-974.74 159.13-198.41 397.16-259.45 642.59-237.24zm1710.63 175.12c-199.87 371.11-391.49 732.71-527.96 1133.42-55.98 164.42-95.38 331.46-136.1 500.12-107.36 444.61-209.43 870.27-210.82 1331.36-.54 177.54 13.39 355.54 45.61 530.23l4.27 23.16-719.68 669.19-29.03-34.67c-68.01-81.25-186.81-237.32-286.57-269.22-160.41-51.32-394.22 101.55-522.36 189.64-134.76 92.66-253.6 193.45-368.78 309.77-105.51 106.55-205.28 221.33-302.02 335.87-115.47 136.72-227.89 276.19-339.06 416.41-185.87 234.41-367.59 471.97-552.7 706.91-75 95.2-150.38 190.12-226.52 284.41-67.25 83.28-135.06 166.55-204.86 247.69-17.57 20.43-204.49 241.04-232.05 222.04-27.56-19 45.29-168.93 60.44-199.68 58.31-118.41 122.03-235.3 185.46-351.04 81.59-148.92 164.72-297.03 248.18-444.9 126.42-224 254.27-447.21 380-671.57 133.78-238.73 266.59-476.64 373.15-729.06 97.49-230.95 181.91-479.03 244.29-721.71 56.49-219.75 87.69-427.56 101.94-653.8 9.03-143.55 12.55-288.15 13.2-431.97.71-155.91-1.75-313.28-11.43-468.92l-1.31-21.06 438.54-383.72 28.18 33.33c92.4 109.25 187.8 196.71 315.06 263.6 165.53 87 351.1 137.81 534.19 75.16 252.45-86.42 477.9-342.72 640.5-548.72 268.9-340.67 497.2-716.47 745.76-1072.27 77.01-110.24 156.55-213.41 241.43-317.47l338.02-426.26c3.53-4.45 9.89-5.38 14.55-2.13 4.67 3.26 5.97 9.58 2.99 14.43zM4062.36 5963.71c-67.29-377.7-250.14-800.53-436.64-1135.19-180.14-323.25-419.15-612.83-607.4-924.06-2.71-4.47-1.85-10.11 2.06-13.57 3.91-3.48 9.62-3.65 13.74-.42 170.28 133.44 290.85 259.52 438.59 426.78 128.97 146 247.12 298.1 359.77 457 117.4 165.6 227.52 337.03 334.95 509.24 83.63 134.06 165.18 271.42 254.58 401.64l21.6 31.46-367.92 321.92z" id="path20"/><path d="M6347.3 8250.5c189.99 445.39 261.95 584.38 552.08 994.74 360.45 509.86 638.97 813.84 1109.78 1264.43 206.39 197.52 425.63 388.49 520.55 475.72 94.92 87.23 112.65 107.94 130.4 128.64-525.78-348.83-957.45-646.21-1442.55-1053.83-220.3-185.1-439.72-382.63-621.28-544.67-418.22-373.28-529.87-481.38-871.27-886.31l576.27-535.83c14.91 53.1 30.47 105.1 46.02 157.11zm-780.9 189.11c-89.99-107.51-197.98-247.88-306.4-282.55-172.53-55.19-400.94 85.97-559.76 195.16-104.09 71.56-224.74 163.23-374.95 314.93-341.24 344.61-869.72 1047.45-1197 1462.84-159.45 202.39-532.68 680.3-583.49 705.71-8.28 4.13-10.06 4.13 19.21-55.3 159.93-324.68 622.52-1116.99 846.08-1515.93 174.16-310.78 278.26-503.58 375.25-733.34 96.99-229.77 186.87-496.49 246.31-727.72 59.44-231.25 88.42-427.01 103.21-661.79 17.04-270.81 18-645.44 1.77-906.25l389.81-341.08c98.33 116.25 196.68 204.93 327.86 273.88 175.7 92.35 372.64 144.65 568.05 77.77 251.69-86.15 476.08-329.35 660.3-562.73 251.9-319.12 523.49-754 747.25-1074.28 74.96-107.3 131.31-180.63 182.52-244.6 19.49-24.35 38.24-47.34 56.99-70.33-11.31 21-22.61 41.96-33.87 62.9-183.89 341.83-361.45 679.23-496.92 1077.04-55.87 164.11-89 304.28-137.2 503.88-109.75 454.48-210.58 867.22-212.02 1341.3-.6 198.2 16.69 377.46 46.32 538.14zM4104.61 5956.18c-66.91-375.55-257.3-818.2-441.4-1148.55-164.96-296.01-330.72-521.48-525.46-783.31 256.15 260.58 430.93 452.02 659.72 774.75 117.39 165.59 234.48 348.33 333.54 507.13 97.76 156.69 177.92 290.05 255.61 403.22z" id="path22" style="fill:url(#id2)"/><path d="M5392.7 4181.98c-762.54-69.01-916.82 725.23-617.72 1246.07 276.71 481.82 846.37 340.45 1056.85-110.59 212.32-454.99 210.33-1076.71-439.13-1135.48z" id="path24" style="fill:url(#id1)"/></g></g></svg>